<svg aria-hidden="true" style="position: absolute; width: 0; height: 0; overflow: hidden;" version="1.1" xmlns="http://www.w3.org/2000/svg" xmlns:xlink="http://www.w3.org/1999/xlink">
<defs>

<symbol id="icon-adidas-logo" viewBox="0 0 46 32">
<path d="M4.813 18.679l6.726-4.091 3.6 6.37-9 0.049-1.325-2.328zM12.705 11.453l6.714-4.059 7.634 13.5-8.978 0.046-5.371-9.488zM20.38 4.056l6.721-4.056 11.808 20.828-9.039 0.051-9.49-16.822zM3.996 23.699c-2.218 0.011-4.007 1.879-3.996 4.172s1.821 4.14 4.039 4.128c2.22-0.012 4.007-1.88 3.996-4.173s-1.819-4.14-4.039-4.128zM4.030 30.146c-1.227 0.007-2.229-1.015-2.236-2.284s0.984-2.302 2.211-2.309c1.227-0.007 2.229 1.015 2.236 2.284 0.009 1.268-0.981 2.302-2.211 2.309z"></path>
<path d="M6.274 23.768l1.892-0.011 0.043 8.038-1.892 0.011-0.043-8.038zM33.722 23.534c-2.22 0.012-4.007 1.88-3.996 4.173s1.822 4.14 4.039 4.128c2.22-0.012 4.007-1.88 3.996-4.173s-1.822-4.142-4.039-4.128zM33.757 29.981c-1.227 0.007-2.229-1.015-2.236-2.284s0.984-2.302 2.211-2.309c1.227-0.007 2.229 1.015 2.236 2.284s-0.984 2.302-2.211 2.309z"></path>
<path d="M36.001 23.602l1.892-0.011 0.043 8.038-1.892 0.011-0.043-8.038zM12.949 23.65c-2.22 0.012-4.007 1.88-3.996 4.173s1.822 4.14 4.039 4.128c2.22-0.012 4.007-1.879 3.996-4.172s-1.822-4.142-4.039-4.128zM12.983 30.097c-1.227 0.007-2.229-1.015-2.236-2.284s0.984-2.302 2.211-2.309c1.227-0.007 2.229 1.015 2.236 2.284s-0.984 2.302-2.211 2.309z"></path>
<path d="M15.211 20.956l1.892-0.011 0.058 10.798-1.892 0.011-0.058-10.798zM24.952 23.583c-2.22 0.012-4.007 1.88-3.996 4.173s1.822 4.14 4.039 4.128c2.22-0.012 4.007-1.88 3.996-4.173-0.014-2.293-1.822-4.142-4.039-4.128zM24.986 30.030c-1.227 0.007-2.229-1.015-2.236-2.284s0.984-2.302 2.211-2.309c1.227-0.007 2.229 1.015 2.236 2.284s-0.984 2.302-2.211 2.309z"></path>
<path d="M27.214 20.891l1.892-0.011 0.058 10.798-1.892 0.011-0.058-10.798zM18.091 23.621l1.892-0.011 0.043 8.12-1.892 0.011-0.043-8.12zM18.078 20.942l1.892-0.011 0.011 2.051-1.892 0.011-0.011-2.051zM43.44 26.108l1.97-0.012c0 0-0.239-2.628-3.456-2.609-3.149 0.018-3.078 2.646-3.078 2.646s-0.071 1.531 1.58 2.047c0 0 0.439 0.209 1.912 0.432s1.291 0.808 1.291 0.808-0.055 0.918-1.32 0.894c-1.268-0.023-1.582-0.686-1.605-1.292l-1.999 0.011c0 0-0.166 1.805 2.227 2.576s4.023-0.616 4.285-0.962c0.262-0.344 0.84-1.596 0.121-2.781 0 0-0.344-0.662-1.576-1.020 0 0-1.924-0.351-2.138-0.402-0.214-0.049-1.152-0.437-0.649-1.145 0 0 0.398-0.395 1.384-0.279 1.040 0.125 0.993 0.662 1.052 1.085z"></path>
</symbol>

<symbol id="icon-apple-pay-logo" viewBox="0 0 43 32">
<path fill="#fff" style="fill: var(--color1, #fff)" d="M38.841 0.667l0.434 0.001c0.119 0.001 0.238 0.003 0.357 0.006 0.217 0.007 0.472 0.021 0.717 0.073 0.227 0.048 0.419 0.122 0.605 0.233 0.376 0.223 0.682 0.582 0.872 1.023 0.094 0.217 0.157 0.443 0.198 0.709 0.044 0.285 0.056 0.584 0.061 0.839 0.003 0.139 0.005 0.278 0.006 0.419 0.001 0.169 0.001 0.339 0.001 0.508v23.047c0 0.169 0 0.339-0.001 0.51-0 0.139-0.002 0.278-0.006 0.417-0.006 0.255-0.018 0.555-0.061 0.841-0.036 0.246-0.102 0.484-0.198 0.707-0.192 0.441-0.497 0.799-0.873 1.023-0.19 0.113-0.394 0.191-0.604 0.233-0.237 0.044-0.476 0.069-0.715 0.072-0.119 0.003-0.239 0.005-0.36 0.005-0.144 0.001-0.289 0.001-0.433 0.001h-35.019c-0.143 0-0.286 0-0.43-0.001-0.119 0-0.239-0.002-0.356-0.005-0.24-0.004-0.48-0.028-0.717-0.072-0.211-0.041-0.415-0.12-0.606-0.233-0.187-0.111-0.357-0.256-0.505-0.431s-0.272-0.373-0.366-0.592c-0.096-0.223-0.163-0.462-0.199-0.709-0.039-0.278-0.059-0.558-0.062-0.839-0.003-0.139-0.005-0.278-0.005-0.417l-0.001-0.407v-23.252l0.001-0.406c0.001-0.139 0.002-0.279 0.005-0.419 0.006-0.254 0.018-0.553 0.062-0.841 0.035-0.247 0.102-0.486 0.199-0.709 0.191-0.44 0.496-0.798 0.872-1.022 0.19-0.113 0.394-0.191 0.605-0.232 0.237-0.045 0.477-0.070 0.717-0.073 0.119-0.003 0.238-0.005 0.356-0.006l0.435-0.001h35.015z"></path>
<path fill="#000" style="fill: var(--color2, #000)" d="M38.841 0.667l0.434 0.001c0.119 0.001 0.238 0.003 0.357 0.006 0.217 0.007 0.472 0.021 0.717 0.073 0.227 0.048 0.419 0.122 0.605 0.233 0.376 0.223 0.682 0.582 0.872 1.023 0.094 0.217 0.157 0.443 0.198 0.709 0.044 0.285 0.056 0.584 0.061 0.839 0.003 0.139 0.005 0.278 0.006 0.419 0.001 0.169 0.001 0.339 0.001 0.508v23.047c0 0.169 0 0.339-0.001 0.51-0 0.139-0.002 0.278-0.006 0.417-0.006 0.255-0.018 0.555-0.061 0.841-0.036 0.246-0.102 0.484-0.198 0.707-0.192 0.44-0.497 0.799-0.873 1.023-0.19 0.113-0.394 0.191-0.604 0.233-0.237 0.044-0.476 0.068-0.715 0.072-0.119 0.003-0.239 0.005-0.36 0.005-0.144 0.001-0.289 0.001-0.433 0.001h-35.019c-0.143 0-0.286 0-0.43-0.001-0.119 0-0.239-0.002-0.356-0.005-0.24-0.004-0.48-0.028-0.717-0.072-0.211-0.041-0.415-0.12-0.606-0.233-0.187-0.111-0.357-0.256-0.505-0.431s-0.272-0.373-0.366-0.592c-0.096-0.223-0.163-0.463-0.199-0.709-0.039-0.278-0.059-0.558-0.062-0.839-0.003-0.139-0.005-0.278-0.005-0.417l-0.001-0.407v-23.252l0.001-0.406c0.001-0.139 0.002-0.279 0.005-0.419 0.006-0.254 0.018-0.553 0.062-0.841 0.035-0.247 0.102-0.486 0.199-0.709 0.191-0.44 0.496-0.798 0.872-1.022 0.19-0.113 0.394-0.191 0.605-0.232 0.237-0.045 0.477-0.070 0.717-0.073 0.119-0.003 0.238-0.005 0.356-0.006l0.435-0.001h35.015zM38.841 0l-35.452 0.001c-0.123 0.001-0.246 0.003-0.369 0.007-0.269 0.004-0.537 0.032-0.802 0.083-0.265 0.053-0.522 0.153-0.763 0.295-0.482 0.289-0.874 0.749-1.121 1.314-0.121 0.282-0.206 0.583-0.251 0.894-0.044 0.311-0.068 0.625-0.071 0.94-0.003 0.143-0.005 0.287-0.005 0.431l-0.001 0.513v23.047l0.001 0.513c0.001 0.144 0.002 0.288 0.006 0.431 0.007 0.313 0.023 0.629 0.071 0.939 0.048 0.315 0.127 0.608 0.251 0.894 0.245 0.566 0.638 1.026 1.121 1.314 0.244 0.146 0.494 0.238 0.762 0.295 0.265 0.055 0.534 0.074 0.802 0.083 0.123 0.004 0.245 0.006 0.369 0.006 0.146 0.001 0.292 0.001 0.437 0.001h35.015c0.146 0 0.292 0 0.438-0.001 0.123-0.001 0.246-0.003 0.369-0.006 0.267-0.009 0.537-0.027 0.802-0.083 0.265-0.053 0.522-0.153 0.762-0.295 0.483-0.287 0.876-0.747 1.121-1.314 0.125-0.286 0.203-0.579 0.251-0.894 0.048-0.31 0.063-0.626 0.071-0.939 0.003-0.144 0.005-0.288 0.006-0.431 0.001-0.171 0.001-0.342 0.001-0.513v-23.047c0-0.171 0-0.342-0.001-0.513-0-0.144-0.002-0.288-0.006-0.431-0.003-0.315-0.027-0.629-0.071-0.94-0.045-0.311-0.13-0.612-0.251-0.894-0.246-0.566-0.638-1.026-1.121-1.314-0.24-0.142-0.497-0.241-0.762-0.295-0.265-0.051-0.533-0.078-0.802-0.083-0.123-0.004-0.246-0.005-0.369-0.007h-0.438z"></path>
<path fill="#000" style="fill: var(--color2, #000)" d="M12.724 9.601c0.394-0.559 0.659-1.337 0.587-2.111-0.569 0.027-1.257 0.445-1.662 1.003-0.367 0.495-0.684 1.287-0.597 2.046 0.633 0.057 1.278-0.378 1.671-0.937zM14.358 14.517c-0.013-1.675 1.166-2.481 1.221-2.521-0.665-1.133-1.696-1.291-2.064-1.308-0.879-0.102-1.717 0.607-2.161 0.607-0.446 0-1.132-0.591-1.862-0.573-0.958 0.016-1.841 0.653-2.335 1.657-0.993 2.029-0.252 5.024 0.717 6.665 0.474 0.803 1.039 1.706 1.782 1.673 0.716-0.033 0.984-0.543 1.849-0.543 0.863-0.001 1.107 0.541 1.861 0.526 0.769-0.019 1.257-0.82 1.729-1.627 0.542-0.93 0.767-1.833 0.778-1.879-0.015-0.012-1.498-0.675-1.515-2.678zM23.515 9.6c-0.287-0.324-0.656-0.576-1.099-0.749-0.439-0.171-0.965-0.258-1.566-0.258-0.384-0.002-0.769 0.021-1.151 0.070-0.319 0.042-0.636 0.094-0.952 0.157l-0.093 0.019v11.777h0.918v-4.962c0.309 0.062 0.663 0.095 1.053 0.095 0.519 0 1.006-0.078 1.446-0.231 0.424-0.141 0.818-0.382 1.159-0.709 0.329-0.322 0.593-0.725 0.774-1.179 0.188-0.467 0.283-1.015 0.283-1.633 0-0.511-0.069-0.97-0.203-1.365-0.13-0.385-0.324-0.736-0.57-1.032zM22.672 14.099c-0.471 0.463-1.138 0.697-1.984 0.697-0.233 0-0.453-0.012-0.655-0.034-0.155-0.016-0.309-0.047-0.461-0.091v-5.008c0.121-0.026 0.271-0.051 0.448-0.073 0.224-0.028 0.493-0.042 0.801-0.042 0.354-0.004 0.707 0.050 1.048 0.159 0.291 0.094 0.564 0.251 0.806 0.463 0.22 0.2 0.393 0.46 0.513 0.773 0.121 0.317 0.182 0.696 0.182 1.125-0.001 0.89-0.236 1.573-0.699 2.031zM29.772 19.513c-0.010-0.333-0.014-0.668-0.014-1.001v-3.274c0-0.388-0.034-0.784-0.099-1.177-0.063-0.391-0.192-0.764-0.38-1.096-0.187-0.328-0.448-0.599-0.774-0.805s-0.751-0.31-1.262-0.31c-0.373 0-0.738 0.057-1.082 0.169-0.361 0.122-0.703 0.312-1.012 0.564l-0.075 0.061 0.31 0.85 0.112-0.089c0.245-0.192 0.512-0.342 0.794-0.443 0.285-0.104 0.582-0.158 0.88-0.159 0.382 0 0.688 0.081 0.906 0.241 0.221 0.162 0.388 0.363 0.496 0.597 0.112 0.242 0.185 0.499 0.218 0.767 0.035 0.278 0.051 0.527 0.051 0.74v0.095c-1.36-0.007-2.422 0.258-3.128 0.791-0.74 0.559-1.116 1.354-1.116 2.363 0 0.291 0.044 0.583 0.132 0.873 0.089 0.293 0.224 0.555 0.4 0.779 0.177 0.227 0.407 0.411 0.681 0.549 0.273 0.139 0.594 0.209 0.953 0.209 0.508 0.010 1.008-0.15 1.442-0.462 0.189-0.137 0.357-0.292 0.5-0.459 0.061-0.072 0.119-0.147 0.175-0.225h0.035l0.084 0.956h0.885l-0.024-0.153c-0.049-0.314-0.078-0.631-0.087-0.95zM28.841 17.836c0 0.115-0.023 0.272-0.068 0.461-0.059 0.204-0.142 0.398-0.247 0.575-0.232 0.399-0.57 0.697-0.961 0.85-0.237 0.091-0.486 0.136-0.736 0.131-0.165 0-0.328-0.033-0.484-0.097-0.151-0.061-0.289-0.159-0.407-0.285-0.123-0.136-0.22-0.302-0.286-0.485-0.072-0.195-0.109-0.437-0.109-0.719 0-0.461 0.106-0.835 0.313-1.108 0.224-0.291 0.504-0.514 0.818-0.65 0.355-0.157 0.727-0.256 1.105-0.295 0.352-0.040 0.705-0.058 1.059-0.054v1.675zM36 12.041l-1.712 5.455c-0.107 0.329-0.206 0.661-0.298 0.985-0.044 0.161-0.086 0.314-0.128 0.459h-0.032c-0.043-0.159-0.086-0.318-0.131-0.477-0.089-0.32-0.184-0.634-0.282-0.933l-1.831-5.489h-0.979l2.62 7.892c0.069 0.19 0.079 0.277 0.079 0.313 0 0.011-0.003 0.075-0.080 0.315-0.143 0.428-0.33 0.835-0.556 1.211-0.21 0.335-0.402 0.607-0.573 0.807-0.199 0.233-0.404 0.425-0.613 0.569-0.213 0.147-0.408 0.267-0.58 0.357l-0.099 0.052 0.319 0.909 0.101-0.044c0.083-0.037 0.239-0.12 0.476-0.255 0.239-0.138 0.503-0.357 0.786-0.653 0.25-0.258 0.472-0.551 0.661-0.873 0.193-0.325 0.387-0.707 0.577-1.131 0.188-0.423 0.375-0.905 0.559-1.432 0.183-0.53 0.38-1.123 0.583-1.759l2.116-6.277h-0.98z"></path>
</symbol>

<symbol id="icon-burger-menu" viewBox="0 0 32 32">
<path d="M26 16c0 1.104-0.896 2-2 2h-16c-1.104 0-2-0.896-2-2s0.896-2 2-2h16c1.104 0 2 0.896 2 2z"></path>
<path d="M26 8c0 1.104-0.896 2-2 2h-16c-1.104 0-2-0.896-2-2s0.896-2 2-2h16c1.104 0 2 0.896 2 2z"></path>
<path d="M26 24c0 1.104-0.896 2-2 2h-16c-1.104 0-2-0.896-2-2s0.896-2 2-2h16c1.104 0 2 0.896 2 2z"></path>
</symbol>

<symbol id="icon-camera" viewBox="0 0 32 32">
<path d="M30 24c0 0.53-0.211 1.039-0.586 1.414s-0.884 0.586-1.414 0.586h-24c-0.53 0-1.039-0.211-1.414-0.586s-0.586-0.884-0.586-1.414v-12c0-0.53 0.211-1.039 0.586-1.414s0.884-0.586 1.414-0.586h2.344c1.59-0.001 3.116-0.633 4.24-1.758l1.66-1.656c0.374-0.374 0.881-0.585 1.41-0.586h4.688c0.53 0 1.039 0.211 1.414 0.586l1.656 1.656c0.557 0.557 1.219 1 1.947 1.301s1.509 0.457 2.297 0.457h2.344c0.53 0 1.039 0.211 1.414 0.586s0.586 0.884 0.586 1.414v12zM4 8c-1.061 0-2.078 0.421-2.828 1.172s-1.172 1.768-1.172 2.828v12c0 1.061 0.421 2.078 1.172 2.828s1.768 1.172 2.828 1.172h24c1.061 0 2.078-0.421 2.828-1.172s1.172-1.768 1.172-2.828v-12c0-1.061-0.421-2.078-1.172-2.828s-1.768-1.172-2.828-1.172h-2.344c-1.061-0-2.078-0.422-2.828-1.172l-1.656-1.656c-0.75-0.75-1.767-1.172-2.828-1.172h-4.688c-1.061 0-2.078 0.422-2.828 1.172l-1.656 1.656c-0.75 0.75-1.767 1.172-2.828 1.172h-2.344z"></path>
<path d="M16 22c-1.326 0-2.598-0.527-3.536-1.464s-1.464-2.21-1.464-3.536 0.527-2.598 1.464-3.536c0.938-0.938 2.209-1.464 3.536-1.464s2.598 0.527 3.536 1.464c0.938 0.938 1.464 2.209 1.464 3.536s-0.527 2.598-1.464 3.536c-0.938 0.938-2.209 1.464-3.536 1.464zM16 24c1.857 0 3.637-0.737 4.95-2.050s2.050-3.093 2.050-4.95c0-1.857-0.737-3.637-2.050-4.95s-3.093-2.050-4.95-2.050c-1.857 0-3.637 0.738-4.95 2.050s-2.050 3.093-2.050 4.95c0 1.857 0.738 3.637 2.050 4.95s3.093 2.050 4.95 2.050zM6 13c0 0.265-0.105 0.52-0.293 0.707s-0.442 0.293-0.707 0.293c-0.265 0-0.52-0.105-0.707-0.293s-0.293-0.442-0.293-0.707c0-0.265 0.105-0.52 0.293-0.707s0.442-0.293 0.707-0.293c0.265 0 0.52 0.105 0.707 0.293s0.293 0.442 0.293 0.707z"></path>
</symbol>

<symbol id="icon-cart" viewBox="0 0 31 32">
<path d="M0 3.52c0-0.255 0.101-0.499 0.281-0.679s0.424-0.281 0.679-0.281h2.88c0.214 0 0.422 0.072 0.591 0.204s0.289 0.316 0.34 0.524l0.778 3.112h22.291c0.142 0 0.282 0.032 0.41 0.092s0.242 0.149 0.332 0.259 0.154 0.238 0.189 0.376c0.034 0.138 0.038 0.281 0.010 0.421l-1.92 9.6c-0.042 0.209-0.153 0.399-0.314 0.538s-0.365 0.221-0.579 0.232l-18.042 0.906 0.551 2.936h16.483c0.255 0 0.499 0.101 0.679 0.281s0.281 0.424 0.281 0.679-0.101 0.499-0.281 0.679c-0.18 0.18-0.424 0.281-0.679 0.281h-17.28c-0.224-0-0.441-0.079-0.613-0.222s-0.289-0.342-0.33-0.562l-2.878-15.331-0.768-3.085h-2.131c-0.255 0-0.499-0.101-0.679-0.281s-0.281-0.424-0.281-0.679zM5.956 8.32l1.613 8.6 17.556-0.881 1.544-7.718h-20.713zM9.6 23.68c-1.018 0-1.995 0.405-2.715 1.125s-1.125 1.697-1.125 2.715c0 1.018 0.405 1.995 1.125 2.715s1.697 1.125 2.715 1.125c1.018 0 1.995-0.405 2.715-1.125s1.125-1.697 1.125-2.715-0.405-1.995-1.125-2.715c-0.72-0.72-1.697-1.125-2.715-1.125zM23.040 23.68c-1.018 0-1.995 0.405-2.715 1.125s-1.125 1.697-1.125 2.715c0 1.018 0.405 1.995 1.125 2.715s1.697 1.125 2.715 1.125c1.018 0 1.995-0.405 2.715-1.125s1.125-1.697 1.125-2.715c0-1.018-0.405-1.995-1.125-2.715s-1.697-1.125-2.715-1.125zM9.6 25.6c0.509 0 0.998 0.202 1.358 0.562s0.562 0.849 0.562 1.358c0 0.509-0.202 0.998-0.562 1.358s-0.848 0.562-1.358 0.562c-0.509 0-0.998-0.202-1.358-0.562s-0.562-0.849-0.562-1.358c0-0.509 0.202-0.998 0.562-1.358s0.848-0.562 1.358-0.562zM23.040 25.6c0.509 0 0.998 0.202 1.358 0.562s0.562 0.849 0.562 1.358c0 0.509-0.202 0.998-0.562 1.358s-0.849 0.562-1.358 0.562c-0.509 0-0.998-0.202-1.358-0.562s-0.562-0.849-0.562-1.358c0-0.509 0.202-0.998 0.562-1.358s0.849-0.562 1.358-0.562z"></path>
</symbol>

<symbol id="icon-check" viewBox="0 0 32 32">
<path fill="#198754" style="fill: var(--color4, #198754)" d="M9.198 26.92l-6.8-8.8c-1.6-4.16 1.84-5.6 4.4-3.2l4.4 5.6 13.6-15.2c2.4-2.52 6.4-1.080 4.8 2.8l-16 18.4c-1.72 2-3.2 1.6-4.4 0.4z"></path>
</symbol>

<symbol id="icon-demix-logo" viewBox="0 0 180 32">
<path d="M16.855 13.082c0.156 0.39 0.525 1.306 0.628 1.562 0.074 0.205 0.063 0.458-0.069 0.686-0.253 0.434-4.436 7.762-4.436 7.762s8.257-5.093 9.564-5.908c1.12-0.691 1.318-2.145 0.673-3.165-0.452-0.71-7.615-11.991-7.934-12.495-0.267-0.424 0.016-1.050 0.563-1.050h1.654c0.448 0 1.034 0.074 1.627 0.577 4.426 3.727 14.013 11.807 16.714 14.093 0.767 0.65 1.046 1.819 0.416 2.903-0.563 0.964-1.558 1.919-3.568 2.701-2.152 0.837-22.849 8.84-26.271 10.194-0.91 0.356-1.93 0.587-3.154 0.587h-2.199c-0.534 0-0.77-0.655-0.445-1.025 0.896-1.042 14.835-16.909 15.41-17.569 0.251-0.282 0.686-0.21 0.825 0.148z"></path>
<path d="M101.26 17.23c-0.29-0.347-0.811-0.541-1.425-0.541h-11.894l1.296-2.586h14.4c1.113 0 2.285-0.618 2.68-1.388l0.564-1.122c0.226-0.431 0.179-0.838-0.116-1.178-0.3-0.334-0.815-0.535-1.44-0.535h-19.582c-1.113 0-2.289 0.614-2.675 1.38l-7.398 14.768c-0.232 0.442-0.193 0.881 0.104 1.197 0.302 0.338 0.813 0.537 1.43 0.537h19.462c1.121 0 2.285-0.614 2.682-1.394l0.588-1.145c0.207-0.415 0.154-0.841-0.12-1.158-0.284-0.328-0.813-0.512-1.413-0.512h-13.9l1.334-2.653h12.31c1.093 0 2.3-0.619 2.681-1.384l0.569-1.105c0.205-0.43 0.163-0.858-0.139-1.179z"></path>
<path d="M179.24 10.437c0.185 0.394-0.124 0.874-0.839 1.316l-11.576 6.972 4.629 7.121c0.239 0.375 0.216 0.764-0.072 1.107-0.304 0.374-0.898 0.61-1.59 0.61l-3.532 0.199c-1.371 0-2.33-0.435-2.895-1.33l-2.579-4.030-6.563 3.953c-0.852 0.515-2.184 1.208-3.882 1.208h-4.062c-0.874 0-1.137-0.38-1.208-0.539-0.191-0.404 0.058-0.972 0.778-1.408l12.225-7.364-4.344-6.648c-0.244-0.37-0.205-0.773 0.061-1.093 0.309-0.389 0.916-0.631 1.608-0.631h3.659c1.38 0 2.298 0.485 2.875 1.384l2.175 3.35 6.295-3.803c0.848-0.515 2.349-0.931 4.040-0.931h3.581c0.882 0 1.149 0.377 1.213 0.557z"></path>
<path d="M149.392 10.428c0.29 0.328 0.332 0.749 0.117 1.174l-7.274 14.763c-0.388 0.791-1.56 1.398-2.667 1.398h-3.084c-0.614 0-1.125-0.203-1.413-0.54-0.28-0.316-0.333-0.733-0.118-1.137l7.242-14.805c0.4-0.77 1.541-1.399 2.628-1.399h3.144c0.61 0 1.139 0.201 1.426 0.548z"></path>
<path d="M139.194 10.408c0.3 0.329 0.336 0.776 0.115 1.216l-7.267 14.722c-0.403 0.808-1.537 1.417-2.648 1.417h-3.016c-0.618 0-1.102-0.177-1.413-0.521-0.287-0.337-0.325-0.758-0.107-1.211l4.489-9.193-9.524 9.694c-0.723 0.691-2.023 1.232-3.016 1.232h-1.19c-1.143 0-2.047-0.647-2.065-1.502l-0.099-9.423-4.664 9.464c-0.402 0.814-1.542 1.413-2.659 1.413h-3.008c-0.62 0-1.111-0.184-1.403-0.516-0.293-0.324-0.339-0.775-0.117-1.21l7.274-14.68c0.399-0.79 1.554-1.429 2.631-1.429h5.487c0.578 0 1.11 0.175 1.484 0.484 0.355 0.3 0.538 0.677 0.523 1.092l0.023 8.845 8.977-9.117c0.714-0.74 1.985-1.304 3.030-1.304h6.796c0.589 0 1.089 0.201 1.367 0.527z"></path>
<path d="M77.351 12.481c1.326 1.491 1.266 3.632-0.197 6.502-3.054 6.067-8.869 8.779-18.869 8.779h-10.712c-0.633 0-1.16-0.203-1.456-0.54-0.28-0.316-0.324-0.733-0.114-1.139l5.253-10.472h7.594l-3.842 7.594h4.931c6.325 0 8.164-1.294 9.794-4.537 0.907-1.785 1.049-2.867 0.479-3.51-0.629-0.712-2.293-1.055-5.222-1.055h-1.953c0 0-9.897 0.003-10.223 0-0.634-0.009-1.503 0.003-2.026-0.089-0.474-0.102-0.659-0.304-0.57-0.6 0.213-0.842 1.054-2.265 2.077-3.006 0.396-0.298 1.014-0.505 2.315-0.505 0.511-0.022 1.014-0.022 1.524-0.022h10.731c5.502 0 8.948 0.856 10.486 2.601z"></path>
</symbol>

<symbol id="icon-facebook" viewBox="0 0 32 32">
<path fill="#fafafa" style="fill: var(--color3, #fafafa)" d="M23.529 9.882c0 4.158-3.371 7.529-7.529 7.529s-7.529-3.371-7.529-7.529c0-4.158 3.371-7.529 7.529-7.529s7.529 3.371 7.529 7.529z"></path>
<path fill="none" stroke="#fff" style="stroke: var(--color1, #fff)" stroke-linejoin="miter" stroke-linecap="butt" stroke-miterlimit="4" stroke-width="0.4706" d="M23.294 9.882c0 4.028-3.266 7.294-7.294 7.294s-7.294-3.266-7.294-7.294c0-4.028 3.266-7.294 7.294-7.294s7.294 3.266 7.294 7.294z"></path>
<path fill="#1a202c" style="fill: var(--color5, #1a202c); stroke: var(--color1, #fff)" stroke="#fff" stroke-linejoin="miter" stroke-linecap="butt" stroke-miterlimit="4" stroke-width="0.4706" d="M17.784 7.791h0.235v-1.711h-1.367c-1.091 0-1.854 0.931-1.854 2.018v0.45h-1.212v1.636h1.212v3.499h1.806v-3.499h1.162l0.035-0.193 0.265-1.443h-1.463v-0.582c0-0.068 0.022-0.122 0.046-0.154 0.008-0.011 0.015-0.018 0.020-0.022h1.114zM8.706 9.882c0-4.028 3.266-7.294 7.294-7.294s7.294 3.266 7.294 7.294c0 4.028-3.266 7.294-7.294 7.294s-7.294-3.266-7.294-7.294z"></path>
</symbol>

<symbol id="icon-google-logo" viewBox="0 0 32 32">
<path fill="#5f6368" style="fill: var(--color6, #5f6368)" d="M15.125 15.841v3.719h-1.199v-9.197h3.119c0.759 0 1.479 0.279 2.039 0.799 0.56 0.479 0.84 1.199 0.84 1.959s-0.279 1.439-0.84 1.959c-0.56 0.52-1.239 0.799-2.039 0.799l-1.92-0.039zM15.125 11.482v3.199h2c0.44 0 0.88-0.161 1.16-0.479 0.64-0.599 0.64-1.599 0.039-2.199l-0.039-0.041c-0.32-0.32-0.72-0.52-1.16-0.479l-2-0.001z"></path>
<path fill="#5f6368" style="fill: var(--color6, #5f6368)" d="M22.683 13.082c0.88 0 1.559 0.239 2.079 0.72 0.52 0.479 0.759 1.119 0.759 1.919v3.839h-1.119v-0.88h-0.039c-0.479 0.72-1.16 1.080-1.959 1.080-0.679 0-1.28-0.2-1.759-0.599-0.44-0.4-0.72-0.96-0.72-1.559 0-0.64 0.24-1.159 0.72-1.559s1.159-0.56 1.959-0.56c0.72 0 1.28 0.12 1.719 0.4v-0.279c0-0.4-0.159-0.799-0.479-1.040-0.32-0.279-0.72-0.44-1.16-0.44-0.679 0-1.199 0.279-1.559 0.84l-1.040-0.64c0.639-0.842 1.479-1.241 2.599-1.241zM21.163 17.641c0 0.32 0.159 0.599 0.4 0.759 0.279 0.2 0.599 0.32 0.919 0.32 0.479 0 0.96-0.2 1.319-0.559 0.4-0.361 0.599-0.799 0.599-1.28-0.359-0.279-0.88-0.44-1.559-0.44-0.479 0-0.88 0.12-1.199 0.359-0.32 0.201-0.479 0.481-0.479 0.841z"></path>
<path fill="#5f6368" style="fill: var(--color6, #5f6368)" d="M32 13.283l-3.958 9.076h-1.201l1.48-3.159-2.599-5.878h1.28l1.879 4.518h0.040l1.839-4.518h1.24v-0.039z"></path>
<path fill="#4285f4" style="fill: var(--color7, #4285f4)" d="M10.368 15.042c0-0.361-0.041-0.72-0.080-1.080h-4.998v2.039h2.839c-0.12 0.64-0.479 1.239-1.040 1.599v1.319h1.719c0.999-0.919 1.56-2.279 1.56-3.878z"></path>
<path fill="#34a853" style="fill: var(--color8, #34a853)" d="M5.288 20.199c1.439 0 2.639-0.479 3.519-1.28l-1.719-1.319c-0.479 0.32-1.080 0.52-1.799 0.52-1.36 0-2.559-0.919-2.959-2.199h-1.761v1.36c0.919 1.799 2.719 2.919 4.718 2.919z"></path>
<path fill="#fbbc04" style="fill: var(--color9, #fbbc04)" d="M2.329 15.921c-0.24-0.64-0.24-1.36 0-2.039v-1.36h-1.759c-0.76 1.48-0.76 3.239 0 4.759l1.759-1.359z"></path>
<path fill="#ea4335" style="fill: var(--color10, #ea4335)" d="M5.289 11.723c0.76 0 1.48 0.279 2.039 0.799l1.52-1.519c-0.96-0.879-2.239-1.399-3.519-1.36-2 0-3.838 1.119-4.718 2.919l1.759 1.359c0.36-1.278 1.559-2.198 2.919-2.198z"></path>
</symbol>

<symbol id="icon-home-icon" viewBox="0 0 32 32">
<path fill="#f55700" style="fill: var(--color11, #f55700)" d="M16.708 2.29c-0.093-0.093-0.203-0.167-0.325-0.217s-0.252-0.076-0.383-0.076c-0.132 0-0.262 0.026-0.383 0.076s-0.232 0.124-0.325 0.217l-12 12c-0.093 0.093-0.166 0.203-0.216 0.325s-0.076 0.252-0.076 0.383v14c0 0.265 0.105 0.52 0.293 0.707s0.442 0.293 0.707 0.293h9c0.265 0 0.52-0.105 0.707-0.293s0.293-0.442 0.293-0.707v-8h4v8c0 0.265 0.105 0.52 0.293 0.707s0.442 0.293 0.707 0.293h9c0.265 0 0.52-0.105 0.707-0.293s0.293-0.442 0.293-0.707v-14c0-0.131-0.025-0.262-0.075-0.383s-0.124-0.232-0.216-0.325l-2.708-2.706v-6.586c0-0.265-0.105-0.52-0.293-0.707s-0.442-0.293-0.707-0.293h-2c-0.265 0-0.52 0.105-0.707 0.293s-0.293 0.442-0.293 0.707v2.586l-5.292-5.294zM5 27.998v-12.586l11-11 11 11v12.586h-7v-8c0-0.265-0.105-0.52-0.293-0.707s-0.442-0.293-0.707-0.293h-6c-0.265 0-0.52 0.105-0.707 0.293s-0.293 0.442-0.293 0.707v8h-7z"></path>
</symbol>

<symbol id="icon-images" viewBox="0 0 32 32">
<path d="M9.005 18c0.796 0 1.559-0.316 2.121-0.879s0.879-1.326 0.879-2.121c0-0.796-0.316-1.559-0.879-2.121s-1.326-0.879-2.121-0.879c-0.796 0-1.559 0.316-2.121 0.879s-0.879 1.326-0.879 2.121c0 0.796 0.316 1.559 0.879 2.121s1.326 0.879 2.121 0.879z"></path>
<path d="M28.005 26c0 1.061-0.421 2.078-1.172 2.828s-1.768 1.172-2.828 1.172h-20c-1.061 0-2.078-0.421-2.828-1.172s-1.172-1.768-1.172-2.828v-16c0-1.060 0.421-2.077 1.17-2.827s1.766-1.172 2.826-1.173c0-1.061 0.421-2.078 1.172-2.828s1.768-1.172 2.828-1.172h20c1.061 0 2.078 0.421 2.828 1.172s1.172 1.768 1.172 2.828v16c0 1.060-0.421 2.077-1.17 2.827s-1.766 1.172-2.826 1.173zM28.001 4h-20c-0.53 0-1.039 0.211-1.414 0.586s-0.586 0.884-0.586 1.414h18.004c1.061 0 2.078 0.421 2.828 1.172s1.172 1.768 1.172 2.828v14c0.53-0.001 1.037-0.212 1.412-0.587s0.584-0.883 0.584-1.413v-16c0-0.53-0.211-1.039-0.586-1.414s-0.884-0.586-1.414-0.586zM4.005 8c-0.53 0-1.039 0.211-1.414 0.586s-0.586 0.884-0.586 1.414v16l5.292-4.708c0.163-0.163 0.378-0.264 0.608-0.287s0.46 0.035 0.652 0.163l5.32 3.546 7.42-7.42c0.148-0.148 0.34-0.246 0.547-0.28s0.42-0.001 0.607 0.092l3.554 3.894v-11c0-0.53-0.211-1.039-0.586-1.414s-0.884-0.586-1.414-0.586h-20z"></path>
</symbol>

<symbol id="icon-instagram" viewBox="0 0 32 32">
<path fill="#fafafa" style="fill: var(--color3, #fafafa)" d="M23.529 9.882c0 4.158-3.371 7.529-7.529 7.529s-7.529-3.371-7.529-7.529c0-4.158 3.371-7.529 7.529-7.529s7.529 3.371 7.529 7.529z"></path>
<path fill="#1a202c" style="fill: var(--color5, #1a202c)" d="M18.315 10.052c0 0.569-0.226 1.115-0.628 1.517s-0.948 0.628-1.517 0.628-1.115-0.226-1.517-0.628c-0.402-0.402-0.628-0.948-0.628-1.517 0-0.122 0.013-0.242 0.035-0.358h-0.75v2.858c0 0.199 0.161 0.36 0.36 0.36h5.002c0.095-0 0.187-0.038 0.254-0.106s0.105-0.159 0.105-0.254v-2.858h-0.75c0.022 0.116 0.035 0.235 0.035 0.358zM16.169 11.482c0.188-0 0.374-0.037 0.547-0.109s0.331-0.177 0.464-0.31c0.133-0.133 0.238-0.291 0.31-0.464s0.109-0.36 0.109-0.547-0.037-0.374-0.109-0.547c-0.072-0.174-0.177-0.331-0.31-0.464s-0.291-0.238-0.464-0.31-0.36-0.109-0.547-0.109c-0.379 0-0.743 0.151-1.011 0.419s-0.419 0.632-0.419 1.012c0 0.379 0.151 0.743 0.419 1.011s0.632 0.419 1.012 0.419zM17.886 8.55h0.857c0.057 0 0.112-0.023 0.152-0.063s0.063-0.095 0.063-0.152v-0.857c0-0.057-0.023-0.112-0.063-0.152s-0.095-0.063-0.152-0.063h-0.857c-0.057 0-0.112 0.023-0.152 0.063s-0.063 0.095-0.063 0.152v0.857c0.001 0.118 0.097 0.215 0.215 0.215zM16.169 3.187c-1.821 0-3.567 0.723-4.854 2.011s-2.011 3.034-2.011 4.854c0 1.821 0.723 3.567 2.011 4.854s3.034 2.011 4.854 2.011c0.902 0 1.794-0.178 2.627-0.523s1.59-0.851 2.227-1.488c0.637-0.637 1.143-1.394 1.488-2.227s0.523-1.726 0.523-2.627c0-0.902-0.178-1.794-0.523-2.627s-0.851-1.59-1.488-2.227c-0.637-0.637-1.394-1.143-2.227-1.488s-1.726-0.523-2.627-0.523zM19.745 12.833c0 0.437-0.358 0.794-0.794 0.794h-5.562c-0.437 0-0.794-0.358-0.794-0.794v-5.562c0-0.437 0.358-0.795 0.794-0.795h5.562c0.437 0 0.794 0.358 0.794 0.795v5.562z"></path>
</symbol>

<symbol id="icon-logo" viewBox="0 0 64 32">
<path fill="#000" style="fill: var(--color1, #000)" d="M20.906 2.988c3.483 1.729 5.94 4.718 7.097 8.151 1.159 3.434 1.019 7.314-0.695 10.824-1.715 3.512-4.679 5.99-8.083 7.156-3.406 1.168-7.253 1.027-10.734-0.701s-5.94-4.718-7.097-8.151c-1.16-3.432-1.020-7.312 0.695-10.824s4.679-5.99 8.083-7.156c3.404-1.169 7.251-1.028 10.734 0.701zM12.239 28.788l-0.017-0.029 3.747-4.076-1.324-4.709-3.423-1.738-4.405 2.086-0.888 5.298-0.041 0.005c0.877 0.79 1.871 1.474 2.977 2.023 1.096 0.544 2.23 0.922 3.373 1.14zM1.548 16.932l4.983 2.505 4.22-2.001 0.549-3.872-3.456-4.107-5.247 0.918c-0.924 2.128-1.251 4.38-1.049 6.557zM9.224 3.586l-0.718 5.336 3.224 3.832 4.378-0.904 2.303-4.716-2.571-4.698c-1.839-0.16-3.677 0.074-5.396 0.664-0.413 0.142-0.822 0.304-1.22 0.487zM24.319 6.577l-5.13 0.899-2.317 4.745 1.843 3.797 5.172 0.274 3.645-3.716c-0.093-0.393-0.205-0.781-0.335-1.164-0.601-1.782-1.575-3.438-2.879-4.836zM26.235 22.181h-0.005l-2.63-5.047-4.924-0.261-3.070 3.112 1.279 4.551c0.006 0.018 0.005 0.036 0.001 0.055l4.855 2.382c1.82-1.158 3.383-2.776 4.494-4.791z"></path>
<path fill="#f55700" style="fill: var(--color2, #f55700)" d="M33.432 2.232c0.247-0.181 0.54-0.382 0.877-0.601 0.337-0.234 0.611-0.351 0.821-0.351s0.373 0.077 0.489 0.232c0.116 0.155 0.141 0.331 0.073 0.527-0.067 0.265 0.019 0.389 0.259 0.374 0.15-0.008 0.364-0.083 0.641-0.227 0.337-0.181 0.716-0.28 1.136-0.295s0.776 0.049 1.068 0.193c0.277 0.151 0.528 0.404 0.753 0.76 0.165 0.234 0.259 0.42 0.281 0.556s-0.008 0.385-0.090 0.748c-0.21 1.043-0.866 2.063-1.968 3.061l-0.843 0.726 0.315 0.544c0.195 0.34 0.326 0.756 0.394 1.247 0.045 0.197 0.056 0.372 0.034 0.527s-0.058 0.289-0.107 0.402c-0.049 0.113-0.141 0.276-0.275 0.488-0.405 0.59-0.948 1.077-1.63 1.463-0.675 0.385-1.334 0.586-1.979 0.601-0.307 0-0.558-0.030-0.753-0.091s-0.453-0.212-0.776-0.454l-0.81-0.578-0.439 0.431c-0.21 0.212-0.347 0.321-0.41 0.329s-0.174-0.060-0.332-0.204c-0.135-0.113-0.217-0.231-0.247-0.351-0.030-0.113-0.023-0.321 0.022-0.624 0.045-0.31 0.056-0.514 0.034-0.612s-0.105-0.181-0.247-0.249c-0.195-0.113-0.292-0.219-0.292-0.317 0-0.181 0.105-0.346 0.315-0.493s0.435-0.221 0.675-0.221c0.105 0 0.195-0.008 0.27-0.023 0.067-0.015 0.137-0.051 0.208-0.108s0.137-0.127 0.197-0.21c0.082-0.113 0.172-0.234 0.27-0.363 0.12-0.204 0.231-0.499 0.332-0.884s0.186-0.658 0.253-0.816c0.045-0.091 0.097-0.187 0.157-0.289s0.122-0.206 0.186-0.312c0.064-0.106 0.114-0.2 0.152-0.283 0.097-0.197 0.15-0.393 0.157-0.59s0-0.404-0.023-0.624c-0.022-0.219-0.026-0.408-0.011-0.567 0.008-0.038 0.034-0.125 0.079-0.261s0.094-0.28 0.146-0.431c0.052-0.151 0.105-0.289 0.157-0.414s0.090-0.187 0.112-0.187c-0.502 0.136-0.881 0.166-1.136 0.091-0.247-0.068-0.409-0.174-0.484-0.317s-0.067-0.285 0.022-0.425c0.090-0.14 0.232-0.248 0.427-0.323 0.135-0.053 0.39-0.072 0.765-0.057s0.633-0.034 0.776-0.147zM36.22 9.772c0-0.491-0.097-0.82-0.292-0.986-0.112-0.106-0.264-0.162-0.455-0.17s-0.42 0.004-0.686 0.034c-0.266 0.030-0.482 0.038-0.647 0.023-0.457-0.045-0.761-0.030-0.911 0.045-0.097 0.053-0.189 0.215-0.275 0.488s-0.152 0.565-0.197 0.879c-0.045 0.314-0.060 0.614-0.045 0.901s0.064 0.472 0.146 0.556c0.15 0.151 0.336 0.24 0.557 0.266s0.448 0.006 0.68-0.062 0.446-0.151 0.641-0.249c0.195-0.098 0.367-0.204 0.517-0.318 0.645-0.476 0.967-0.945 0.967-1.406zM37.682 3.706c-0.195-0.234-0.431-0.374-0.708-0.42-0.322-0.045-0.678 0.038-1.068 0.249s-0.735 0.48-1.034 0.805-0.547 0.676-0.742 1.054c-0.195 0.378-0.281 0.699-0.259 0.964 0.052 0.567 0.408 0.82 1.068 0.76 0.622-0.060 1.271-0.34 1.945-0.839 0.667-0.499 1.027-0.975 1.079-1.429 0.052-0.484-0.041-0.865-0.281-1.145z"></path>
<path fill="#f55700" style="fill: var(--color2, #f55700)" d="M46.331 11.269c0.142-0.113 0.264-0.161 0.365-0.142s0.152 0.119 0.152 0.3c0 0.038-0.008 0.077-0.022 0.119s-0.032 0.079-0.051 0.113c-0.019 0.034-0.047 0.070-0.084 0.108s-0.071 0.072-0.101 0.102c-0.030 0.030-0.067 0.062-0.112 0.096s-0.082 0.060-0.112 0.079c-0.030 0.019-0.067 0.043-0.112 0.074s-0.079 0.053-0.101 0.068c-0.142 0.098-0.292 0.181-0.45 0.249-0.015 0.008-0.105 0.053-0.27 0.136l-0.056 0.068c-0.202 0.197-0.495 0.317-0.877 0.363-0.24 0.030-0.425 0.032-0.557 0.006s-0.313-0.093-0.545-0.198c-0.345-0.166-0.573-0.302-0.686-0.408-0.075-0.060-0.139-0.087-0.191-0.079s-0.15 0.068-0.292 0.181c-0.457 0.333-1.003 0.52-1.636 0.561s-1.048-0.085-1.242-0.38c-0.12-0.189-0.174-0.556-0.163-1.1s0.081-0.934 0.208-1.168c0.112-0.204 0.199-0.355 0.259-0.454 0.067-0.098 0.131-0.189 0.191-0.272 0.060-0.091 0.161-0.223 0.304-0.397 0.472-0.59 0.843-0.994 1.113-1.213 0.21-0.166 0.457-0.308 0.742-0.425s0.583-0.195 0.894-0.232c0.311-0.038 0.587 0.004 0.826 0.125 0.292 0.151 0.472 0.41 0.54 0.777s0.060 0.722-0.022 1.066c-0.083 0.344-0.199 0.667-0.349 0.969-0.127 0.287-0.223 0.601-0.287 0.941s-0.062 0.563 0.006 0.669c0.142 0.287 0.611 0.306 1.405 0.057 0.030-0.008 0.060-0.011 0.090-0.011 0.045-0.015 0.079-0.030 0.101-0.045 0.48-0.249 0.855-0.484 1.124-0.703zM42.936 9.137c0.083-0.045 0.127-0.083 0.135-0.113s-0.011-0.068-0.056-0.113c-0.090-0.098-0.217-0.162-0.382-0.193s-0.326-0.023-0.484 0.023c-0.157 0.038-0.395 0.189-0.714 0.454s-0.534 0.491-0.647 0.68c-0.15 0.219-0.277 0.416-0.382 0.59-0.127 0.181-0.214 0.446-0.259 0.794s-0.026 0.574 0.056 0.68c0.075 0.091 0.24 0.136 0.495 0.136s0.495-0.042 0.72-0.125c0.217-0.106 0.379-0.265 0.483-0.476 0.18-0.355 0.326-0.642 0.439-0.862 0.195-0.34 0.292-0.571 0.292-0.692 0-0.076 0.032-0.153 0.096-0.232s0.081-0.164 0.051-0.255c-0.038-0.121 0.015-0.219 0.157-0.295z"></path>
<path fill="#f55700" style="fill: var(--color2, #f55700)" d="M47.996 8.842c-0.247 0.302-0.461 0.586-0.641 0.85s-0.262 0.431-0.247 0.499c0 0.121 0.105 0.397 0.315 0.828 0.255 0.491 0.551 0.737 0.888 0.737 0.067 0 0.137-0.008 0.208-0.023s0.161-0.042 0.27-0.079c0.109-0.038 0.178-0.060 0.208-0.068 0.082-0.023 0.217-0.091 0.405-0.204 0.232-0.144 0.453-0.299 0.663-0.465 0.165-0.144 0.309-0.202 0.433-0.176s0.189 0.145 0.197 0.357c0 0.068-0.017 0.136-0.051 0.204s-0.069 0.127-0.107 0.176c-0.038 0.049-0.092 0.106-0.163 0.17s-0.129 0.111-0.174 0.142c-0.045 0.030-0.109 0.074-0.191 0.13s-0.135 0.093-0.157 0.108c-0.060 0.038-0.15 0.094-0.27 0.17s-0.21 0.132-0.27 0.17c-0.255 0.174-0.513 0.276-0.776 0.306-0.255 0.038-0.446 0.040-0.573 0.006s-0.315-0.134-0.562-0.3c-0.315-0.219-0.57-0.457-0.765-0.714s-0.326-0.503-0.394-0.737c-0.067-0.234-0.101-0.506-0.101-0.816s0.019-0.588 0.056-0.833c0.038-0.246 0.084-0.548 0.141-0.907s0.088-0.667 0.096-0.924c0.008-0.098 0.017-0.2 0.028-0.306s0.022-0.202 0.034-0.289c0.011-0.087 0.028-0.191 0.051-0.312s0.039-0.215 0.051-0.283 0.036-0.168 0.073-0.3c0.038-0.132 0.062-0.225 0.073-0.278s0.038-0.153 0.079-0.3c0.041-0.147 0.067-0.24 0.079-0.278s0.041-0.138 0.090-0.3 0.077-0.259 0.084-0.289c0.082-0.28 0.154-0.484 0.214-0.612 0.067-0.136 0.159-0.27 0.275-0.402s0.221-0.24 0.315-0.323c0.094-0.083 0.219-0.189 0.377-0.317 0.060-0.045 0.163-0.128 0.309-0.249s0.253-0.206 0.32-0.255c0.067-0.049 0.159-0.117 0.275-0.204s0.229-0.163 0.337-0.227 0.227-0.127 0.354-0.187c0.285-0.144 0.506-0.197 0.663-0.159 0.12 0.030 0.221 0.096 0.304 0.198s0.139 0.217 0.169 0.346c0.022 0.091 0.039 0.183 0.051 0.278s0.013 0.197 0.006 0.306c-0.008 0.11-0.013 0.202-0.017 0.278s-0.021 0.178-0.051 0.306c-0.030 0.128-0.051 0.221-0.062 0.278s-0.041 0.155-0.090 0.295-0.079 0.229-0.090 0.266c-0.011 0.038-0.045 0.134-0.101 0.289s-0.088 0.244-0.096 0.266c-0.187 0.506-0.337 0.839-0.45 0.998-0.075 0.106-0.292 0.503-0.652 1.19-0.367 0.688-0.622 1.1-0.765 1.236-0.202 0.189-0.427 0.435-0.675 0.737zM47.849 6.087c-0.082 0.076-0.178 0.333-0.287 0.771s-0.129 0.692-0.062 0.76c0.037 0.030 0.099-0.002 0.186-0.096s0.191-0.242 0.315-0.442c0.124-0.2 0.245-0.44 0.365-0.72 0.247-0.499 0.371-0.771 0.371-0.816 0-0.023 0.116-0.28 0.349-0.771 0.232-0.484 0.349-0.779 0.349-0.884 0-0.219-0.097-0.242-0.292-0.068-0.127 0.098-0.251 0.253-0.371 0.465-0.187 0.348-0.364 0.627-0.528 0.839-0.15 0.197-0.225 0.382-0.225 0.556 0 0.166-0.056 0.302-0.169 0.408z"></path>
<path fill="#f55700" style="fill: var(--color2, #f55700)" d="M51.817 8.842c-0.247 0.302-0.461 0.586-0.641 0.85s-0.262 0.431-0.247 0.499c0 0.121 0.105 0.397 0.315 0.828 0.255 0.491 0.551 0.737 0.888 0.737 0.067 0 0.137-0.008 0.208-0.023s0.161-0.042 0.27-0.079c0.109-0.038 0.178-0.060 0.208-0.068 0.082-0.023 0.217-0.091 0.405-0.204 0.232-0.144 0.453-0.299 0.663-0.465 0.165-0.144 0.309-0.202 0.433-0.176s0.189 0.145 0.197 0.357c0 0.068-0.017 0.136-0.051 0.204s-0.069 0.127-0.107 0.176c-0.038 0.049-0.092 0.106-0.163 0.17s-0.129 0.111-0.174 0.142c-0.045 0.030-0.109 0.074-0.191 0.13s-0.135 0.093-0.157 0.108c-0.060 0.038-0.15 0.094-0.27 0.17s-0.21 0.132-0.27 0.17c-0.255 0.174-0.513 0.276-0.776 0.306-0.255 0.038-0.446 0.040-0.573 0.006s-0.315-0.134-0.562-0.3c-0.315-0.219-0.57-0.457-0.765-0.714s-0.326-0.503-0.394-0.737c-0.067-0.234-0.101-0.506-0.101-0.816s0.019-0.588 0.056-0.833c0.038-0.246 0.084-0.548 0.141-0.907s0.088-0.667 0.096-0.924c0.008-0.098 0.017-0.2 0.028-0.306s0.022-0.202 0.034-0.289c0.011-0.087 0.028-0.191 0.051-0.312s0.039-0.215 0.051-0.283 0.036-0.168 0.073-0.3c0.038-0.132 0.062-0.225 0.073-0.278s0.037-0.153 0.079-0.3c0.041-0.147 0.067-0.24 0.079-0.278s0.041-0.138 0.090-0.3 0.077-0.259 0.084-0.289c0.082-0.28 0.154-0.484 0.214-0.612 0.067-0.136 0.159-0.27 0.275-0.402s0.221-0.24 0.315-0.323c0.094-0.083 0.219-0.189 0.377-0.317 0.060-0.045 0.163-0.128 0.309-0.249s0.253-0.206 0.32-0.255c0.067-0.049 0.159-0.117 0.275-0.204s0.229-0.163 0.337-0.227 0.227-0.127 0.354-0.187c0.285-0.144 0.506-0.197 0.663-0.159 0.12 0.030 0.221 0.096 0.304 0.198s0.139 0.217 0.169 0.346c0.023 0.091 0.039 0.183 0.051 0.278s0.013 0.197 0.006 0.306c-0.008 0.11-0.013 0.202-0.017 0.278s-0.021 0.178-0.051 0.306c-0.030 0.128-0.051 0.221-0.062 0.278s-0.041 0.155-0.090 0.295-0.079 0.229-0.090 0.266c-0.011 0.038-0.045 0.134-0.101 0.289s-0.088 0.244-0.096 0.266c-0.187 0.506-0.337 0.839-0.45 0.998-0.075 0.106-0.292 0.503-0.652 1.19-0.367 0.688-0.622 1.1-0.765 1.236-0.202 0.189-0.427 0.435-0.675 0.737zM51.671 6.087c-0.082 0.076-0.178 0.333-0.287 0.771s-0.129 0.692-0.062 0.76c0.037 0.030 0.099-0.002 0.185-0.096s0.191-0.242 0.315-0.442c0.124-0.2 0.245-0.44 0.365-0.72 0.247-0.499 0.371-0.771 0.371-0.816 0-0.023 0.116-0.28 0.349-0.771 0.232-0.484 0.349-0.779 0.349-0.884 0-0.219-0.097-0.242-0.292-0.068-0.127 0.098-0.251 0.253-0.371 0.465-0.187 0.348-0.364 0.627-0.528 0.839-0.15 0.197-0.225 0.382-0.225 0.556 0 0.166-0.056 0.302-0.169 0.408z"></path>
<path fill="#f55700" style="fill: var(--color2, #f55700)" d="M26.982 18.718c0.48-0.28 0.742-0.438 0.787-0.476 0.15-0.151 0.304-0.144 0.461 0.023 0.105 0.106 0.251 0.106 0.438 0 0.187-0.098 0.42-0.079 0.697 0.057 0.172 0.091 0.289 0.191 0.349 0.3s0.109 0.316 0.146 0.618c0.067 0.416 0.15 0.663 0.247 0.743s0.251 0.024 0.461-0.164c0.187-0.197 0.345-0.295 0.472-0.295s0.304-0.076 0.528-0.227c0.367-0.249 0.727-0.248 1.079 0.006s0.528 0.641 0.528 1.162c0 0.28 0.043 0.427 0.129 0.442s0.26-0.087 0.523-0.306c0.69-0.574 1.224-0.911 1.602-1.009s0.748 0.004 1.108 0.306l0.438 0.385-0.090 1.066c-0.075 0.718-0.225 1.304-0.45 1.757-0.225 0.484-0.337 0.765-0.337 0.845s-0.060 0.251-0.18 0.516c-0.24 0.461-0.334 1.132-0.281 2.012s0.217 1.366 0.495 1.457c0.187 0.038 0.439-0.034 0.753-0.215 0.307-0.204 0.581-0.306 0.821-0.306 0.195 0 0.377 0.091 0.545 0.272s0.219 0.344 0.152 0.488c-0.068 0.166-0.291 0.342-0.669 0.527s-0.752 0.304-1.119 0.357c-0.255 0.030-0.448 0.032-0.579 0.006s-0.291-0.108-0.478-0.244c-0.397-0.295-0.661-0.62-0.793-0.975s-0.197-0.907-0.197-1.655c0-0.907 0.037-1.508 0.112-1.803 0.157-0.499 0.3-1.028 0.427-1.587s0.206-1.001 0.236-1.327c0.038-0.325 0.022-0.506-0.045-0.544-0.262 0-0.847 0.571-1.754 1.712s-1.417 1.95-1.529 2.426c-0.052 0.257-0.236 0.752-0.551 1.485s-0.633 1.402-0.956 2.007c-0.157 0.295-0.345 0.472-0.562 0.533s-0.393-0.009-0.528-0.21c-0.135-0.2-0.161-0.471-0.079-0.811 0.038-0.265 0.15-0.582 0.337-0.952 0.187-0.348 0.281-0.616 0.281-0.805s0.090-0.404 0.27-0.646c0.202-0.249 0.313-0.488 0.332-0.714s0.103-0.427 0.253-0.601c0.195-0.212 0.455-0.826 0.782-1.842s0.448-1.601 0.365-1.752c-0.037-0.060-0.242 0.002-0.613 0.187s-0.557 0.321-0.557 0.408-0.266 0.573-0.798 1.457c-0.525 0.809-0.896 1.527-1.113 2.154-0.225 0.59-0.45 1.051-0.675 1.383-0.24 0.378-0.36 0.612-0.36 0.703-0.008 0.151-0.184 0.548-0.528 1.19-0.172 0.325-0.315 0.576-0.427 0.754s-0.195 0.278-0.247 0.3c-0.135 0.068-0.251 0.068-0.349 0-0.495-0.325-0.555-0.828-0.18-1.508 0.217-0.401 0.378-0.699 0.483-0.896 0.217-0.385 0.375-0.684 0.472-0.896 0.127-0.272 0.249-0.584 0.365-0.935s0.21-0.671 0.281-0.958c0.071-0.287 0.161-0.608 0.27-0.964s0.223-0.665 0.343-0.93c0.225-0.522 0.356-0.882 0.394-1.083s0.037-0.489 0-0.867l-0.101-0.816-0.495 0.034c-0.315 0.045-0.542 0.13-0.68 0.255s-0.152 0.263-0.039 0.414c0.255 0.295 0.086 0.756-0.506 1.383-0.652 0.68-1.169 0.907-1.552 0.68-0.202-0.106-0.304-0.359-0.304-0.76s0.094-0.824 0.281-1.27c0.142-0.317 0.307-0.559 0.495-0.726s0.573-0.412 1.158-0.737z"></path>
<path fill="#f55700" style="fill: var(--color2, #f55700)" d="M44.805 28.275c0.142-0.113 0.264-0.161 0.365-0.142s0.152 0.119 0.152 0.3c0 0.038-0.008 0.078-0.022 0.119s-0.032 0.079-0.051 0.113c-0.019 0.034-0.047 0.070-0.084 0.108s-0.071 0.072-0.101 0.102c-0.030 0.030-0.067 0.062-0.112 0.096s-0.082 0.060-0.112 0.079c-0.030 0.019-0.067 0.043-0.112 0.074s-0.079 0.053-0.101 0.068c-0.142 0.098-0.292 0.181-0.45 0.249-0.015 0.008-0.105 0.053-0.27 0.136l-0.056 0.068c-0.202 0.197-0.495 0.317-0.877 0.363-0.24 0.030-0.425 0.032-0.557 0.006s-0.313-0.093-0.545-0.198c-0.345-0.166-0.573-0.302-0.686-0.408-0.075-0.060-0.139-0.087-0.191-0.079s-0.15 0.068-0.292 0.181c-0.457 0.333-1.003 0.52-1.636 0.561s-1.048-0.085-1.242-0.38c-0.12-0.189-0.174-0.556-0.163-1.1s0.081-0.933 0.208-1.168c0.112-0.204 0.199-0.355 0.259-0.454 0.067-0.098 0.131-0.189 0.191-0.272 0.060-0.091 0.161-0.223 0.304-0.397 0.472-0.59 0.843-0.994 1.113-1.213 0.21-0.166 0.457-0.308 0.742-0.425s0.583-0.195 0.894-0.232c0.311-0.038 0.587 0.004 0.826 0.125 0.292 0.151 0.472 0.41 0.54 0.777s0.060 0.722-0.022 1.066c-0.083 0.344-0.199 0.667-0.349 0.969-0.127 0.287-0.223 0.601-0.287 0.941s-0.062 0.563 0.006 0.669c0.142 0.287 0.611 0.306 1.405 0.057 0.030-0.008 0.060-0.011 0.090-0.011 0.045-0.015 0.079-0.030 0.101-0.045 0.48-0.249 0.855-0.484 1.124-0.703zM41.409 26.144c0.083-0.045 0.127-0.083 0.135-0.113s-0.011-0.068-0.056-0.113c-0.090-0.098-0.217-0.163-0.382-0.193s-0.326-0.023-0.484 0.023c-0.157 0.038-0.395 0.189-0.714 0.453s-0.534 0.491-0.647 0.68c-0.15 0.219-0.277 0.416-0.382 0.59-0.127 0.181-0.214 0.446-0.259 0.794s-0.026 0.574 0.056 0.68c0.075 0.091 0.24 0.136 0.495 0.136s0.495-0.042 0.72-0.125c0.217-0.106 0.379-0.265 0.483-0.476 0.18-0.355 0.326-0.642 0.439-0.862 0.195-0.34 0.292-0.571 0.292-0.692 0-0.076 0.032-0.153 0.096-0.232s0.081-0.164 0.051-0.255c-0.038-0.121 0.015-0.219 0.157-0.295z"></path>
<path fill="#f55700" style="fill: var(--color2, #f55700)" d="M44.175 28.094c0.12-0.204 0.352-0.671 0.697-1.4s0.641-1.241 0.888-1.536c0.037-0.053 0.079-0.102 0.124-0.147 0.090-0.098 0.214-0.172 0.371-0.221s0.3-0.043 0.427 0.017c0.045 0.030 0.077 0.11 0.096 0.238s0.047 0.197 0.084 0.204c0.052 0.008 0.18-0.060 0.382-0.204 0.345-0.242 0.888-0.442 1.63-0.601 0.3-0.076 0.495-0.106 0.585-0.091s0.202 0.083 0.337 0.204c0.172 0.174 0.262 0.385 0.27 0.635s-0.075 0.484-0.247 0.703c-0.127 0.189-0.292 0.563-0.495 1.122s-0.304 0.945-0.304 1.156c0 0.151 0.051 0.316 0.152 0.493s0.225 0.325 0.371 0.442c0.146 0.117 0.279 0.176 0.399 0.176 0.18 0 0.558-0.151 1.136-0.453s1.031-0.59 1.361-0.862c0.247-0.189 0.424-0.278 0.529-0.266s0.157 0.123 0.157 0.334c0 0.091-0.039 0.195-0.118 0.312s-0.182 0.24-0.309 0.369c-0.135 0.121-0.292 0.244-0.472 0.368s-0.364 0.225-0.551 0.3c-0.495 0.234-0.851 0.404-1.068 0.51-0.375 0.174-0.706 0.223-0.995 0.147s-0.628-0.31-1.018-0.703c-0.315-0.317-0.5-0.535-0.557-0.652s-0.084-0.342-0.084-0.675c0-0.484 0.086-0.986 0.259-1.508 0.15-0.522 0.21-0.805 0.18-0.85-0.045-0.045-0.349 0.198-0.911 0.731s-1.113 1.096-1.653 1.689-0.81 0.935-0.81 1.026c0 0.076-0.047 0.159-0.141 0.249s-0.208 0.164-0.343 0.221-0.255 0.074-0.36 0.051c-0.172-0.023-0.292-0.159-0.36-0.408-0.052-0.166-0.060-0.314-0.022-0.442s0.165-0.355 0.382-0.68z"></path>
<path fill="#f55700" style="fill: var(--color2, #f55700)" d="M55.219 22.776c-0.21 0.053-0.416-0.023-0.618-0.227-0.142-0.144-0.217-0.238-0.225-0.283s0.045-0.113 0.157-0.204c0.157-0.113 0.358-0.17 0.602-0.17s0.41 0.057 0.5 0.17c0.097 0.128 0.103 0.268 0.017 0.42s-0.231 0.249-0.433 0.295zM57.22 28.207c0.052 0.091 0.054 0.178 0.006 0.261s-0.186 0.219-0.41 0.408c-0.352 0.302-0.768 0.578-1.248 0.828-0.36 0.181-0.733 0.255-1.119 0.221s-0.75-0.146-1.091-0.334c-0.341-0.189-0.635-0.435-0.883-0.737-0.352-0.423-0.457-0.986-0.315-1.689 0.015-0.053 0.045-0.234 0.090-0.544s0.092-0.584 0.141-0.822c0.049-0.238 0.103-0.395 0.163-0.471 0.067-0.083 0.178-0.14 0.332-0.17s0.313-0.032 0.478-0.006c0.165 0.026 0.322 0.076 0.472 0.147s0.253 0.168 0.309 0.289c0.056 0.121 0.054 0.257-0.006 0.408-0.172 0.363-0.259 0.616-0.259 0.76 0 0.136-0.075 0.306-0.225 0.51-0.127 0.151-0.204 0.334-0.231 0.55s0.009 0.357 0.107 0.425c0.082 0.030 0.124 0.125 0.124 0.283 0 0.136 0.097 0.291 0.292 0.465 0.135 0.128 0.242 0.2 0.32 0.215s0.223-0.004 0.433-0.057c0.307-0.113 0.701-0.344 1.181-0.692 0.382-0.28 0.673-0.438 0.871-0.476s0.354 0.038 0.467 0.227z"></path>
<path fill="#f55700" style="fill: var(--color2, #f55700)" d="M63.483 28.275c0.142-0.113 0.264-0.161 0.365-0.142s0.152 0.119 0.152 0.3c0 0.038-0.008 0.078-0.022 0.119s-0.032 0.079-0.051 0.113c-0.019 0.034-0.047 0.070-0.084 0.108s-0.071 0.072-0.101 0.102c-0.030 0.030-0.067 0.062-0.112 0.096s-0.082 0.060-0.112 0.079c-0.030 0.019-0.068 0.043-0.112 0.074s-0.079 0.053-0.101 0.068c-0.142 0.098-0.292 0.181-0.45 0.249-0.015 0.008-0.105 0.053-0.27 0.136l-0.056 0.068c-0.202 0.197-0.495 0.317-0.877 0.363-0.24 0.030-0.425 0.032-0.557 0.006s-0.313-0.093-0.545-0.198c-0.345-0.166-0.573-0.302-0.686-0.408-0.075-0.060-0.139-0.087-0.191-0.079s-0.15 0.068-0.292 0.181c-0.457 0.333-1.003 0.52-1.636 0.561s-1.048-0.085-1.242-0.38c-0.12-0.189-0.174-0.556-0.163-1.1s0.081-0.933 0.208-1.168c0.112-0.204 0.199-0.355 0.259-0.454 0.067-0.098 0.131-0.189 0.191-0.272 0.060-0.091 0.161-0.223 0.304-0.397 0.472-0.59 0.843-0.994 1.113-1.213 0.21-0.166 0.457-0.308 0.742-0.425s0.583-0.195 0.894-0.232c0.311-0.038 0.587 0.004 0.826 0.125 0.292 0.151 0.472 0.41 0.54 0.777s0.060 0.722-0.022 1.066c-0.083 0.344-0.199 0.667-0.349 0.969-0.127 0.287-0.223 0.601-0.287 0.941s-0.062 0.563 0.006 0.669c0.142 0.287 0.611 0.306 1.405 0.057 0.030-0.008 0.060-0.011 0.090-0.011 0.045-0.015 0.079-0.030 0.101-0.045 0.48-0.249 0.855-0.484 1.124-0.703zM60.087 26.144c0.083-0.045 0.127-0.083 0.135-0.113s-0.011-0.068-0.056-0.113c-0.090-0.098-0.217-0.163-0.382-0.193s-0.326-0.023-0.484 0.023c-0.157 0.038-0.395 0.189-0.714 0.453s-0.534 0.491-0.647 0.68c-0.15 0.219-0.277 0.416-0.382 0.59-0.127 0.181-0.214 0.446-0.259 0.794s-0.026 0.574 0.056 0.68c0.075 0.091 0.24 0.136 0.495 0.136s0.495-0.042 0.72-0.125c0.217-0.106 0.379-0.265 0.483-0.476 0.18-0.355 0.326-0.642 0.439-0.862 0.195-0.34 0.292-0.571 0.292-0.692 0-0.076 0.032-0.153 0.096-0.232s0.081-0.164 0.051-0.255c-0.038-0.121 0.015-0.219 0.157-0.295z"></path>
</symbol>

<symbol id="icon-maestro-logo" viewBox="0 0 53 32">
<path fill="#009cdc" style="fill: var(--color12, #009cdc)" d="M26.668 27.858c3.22-2.926 5.244-7.155 5.244-11.859 0-4.703-2.023-8.931-5.244-11.858-2.834-2.574-6.59-4.141-10.713-4.141-8.81 0-15.956 7.163-15.956 15.999 0 8.837 7.145 16.001 15.956 16.001 4.123 0 7.879-1.568 10.713-4.142z"></path>
<path fill="#009cdc" style="fill: var(--color12, #009cdc)" d="M26.669 27.858c3.22-2.926 5.244-7.155 5.244-11.859 0-4.703-2.023-8.931-5.244-11.858z"></path>
<path fill="none" stroke="#009cdc" style="stroke: var(--color12, #009cdc)" stroke-linejoin="miter" stroke-linecap="butt" stroke-miterlimit="4" stroke-width="1.2097" d="M26.669 27.858c3.22-2.926 5.244-7.155 5.244-11.859 0-4.703-2.023-8.931-5.244-11.858"></path>
<path fill="#ed2233" style="fill: var(--color13, #ed2233)" d="M37.378 0c-4.122 0-7.879 1.567-10.709 4.141-0.578 0.524-1.116 1.091-1.613 1.695h3.222c0.44 0.536 0.848 1.101 1.216 1.692h-5.655c-0.338 0.544-0.646 1.11-0.919 1.695h7.492c0.257 0.549 0.484 1.114 0.677 1.696h-8.845c-0.183 0.551-0.338 1.116-0.463 1.694h9.772c0.236 1.092 0.36 2.225 0.36 3.387 0 1.777-0.289 3.486-0.823 5.083h-8.845c0.195 0.581 0.42 1.147 0.676 1.695h7.492c-0.272 0.585-0.579 1.15-0.918 1.696h-5.655c0.369 0.591 0.776 1.156 1.216 1.692h3.222c-0.495 0.604-1.034 1.171-1.609 1.694 2.83 2.574 6.588 4.142 10.709 4.142 8.812 0 15.956-7.164 15.956-16.001 0-8.836-7.143-15.999-15.956-15.999z"></path>
<path fill="#ed2233" style="fill: var(--color13, #ed2233)" d="M51.654 24.888h0.058c0.020 0 0.045 0.001 0.065-0.009 0.017-0.011 0.026-0.032 0.026-0.051 0-0.018-0.010-0.038-0.026-0.047-0.018-0.011-0.048-0.008-0.068-0.008h-0.055v0.115zM51.654 25.145h-0.106v-0.454h0.19c0.040 0 0.082 0.001 0.116 0.024 0.038 0.024 0.058 0.068 0.058 0.113 0 0.051-0.030 0.099-0.078 0.118l0.084 0.2h-0.117l-0.069-0.179h-0.077v0.179zM51.724 25.312c0.216 0 0.393-0.176 0.393-0.393s-0.176-0.393-0.393-0.393c-0.215 0-0.393 0.176-0.393 0.393s0.178 0.393 0.393 0.393zM51.208 24.919c0-0.286 0.23-0.517 0.516-0.517s0.514 0.23 0.514 0.517c0 0.284-0.229 0.517-0.514 0.517s-0.516-0.233-0.516-0.517z"></path>
<path fill="#003873" style="fill: var(--color14, #003873)" d="M13.466 20.452h-2.005l1.179-6.236-2.717 6.236h-1.677l-0.33-6.202-1.314 6.202h-1.824l1.54-8.112h3.153l0.035 5.021 2.185-5.021h3.341l-1.565 8.112z"></path>
<path fill="#003873" style="fill: var(--color14, #003873)" d="M35.654 20.369c-0.544 0.149-0.968 0.215-1.427 0.215-1.016 0-1.57-0.511-1.57-1.449 0-0.185 0.019-0.383 0.059-0.591l0.12-0.646 0.093-0.523 0.921-5.036h1.976l-0.287 1.514h1.013l-0.272 1.604h-1.017l-0.523 2.752c-0.023 0.12-0.034 0.21-0.034 0.272 0 0.341 0.205 0.49 0.677 0.49 0.226 0 0.402-0.021 0.536-0.063l-0.263 1.461z"></path>
<path fill="#003873" style="fill: var(--color14, #003873)" d="M27.77 15.938c0 0.833 0.468 1.407 1.529 1.837 0.814 0.332 0.94 0.429 0.94 0.73 0 0.411-0.358 0.596-1.153 0.596-0.601 0-1.157-0.083-1.8-0.262l-0.278 1.522 0.091 0.014 0.368 0.068c0.117 0.022 0.292 0.040 0.525 0.057 0.478 0.038 0.847 0.056 1.107 0.056 2.12 0 3.1-0.698 3.1-2.201 0-0.905-0.409-1.437-1.417-1.836-0.842-0.336-0.939-0.409-0.939-0.717 0-0.355 0.333-0.537 0.983-0.537 0.394 0 0.932 0.037 1.443 0.098l0.287-1.527c-0.52-0.072-1.31-0.13-1.768-0.13-2.246 0-3.025 1.014-3.018 2.232z"></path>
<path fill="#003873" style="fill: var(--color14, #003873)" d="M18.551 17.512c-0.208-0.023-0.299-0.029-0.444-0.029-1.125 0-1.696 0.339-1.696 1.004 0 0.411 0.278 0.673 0.712 0.673 0.81 0 1.393-0.674 1.427-1.649zM19.891 20.452h-1.651l0.040-0.684c-0.504 0.54-1.173 0.795-2.085 0.795-1.074 0-1.814-0.734-1.814-1.801 0-1.607 1.284-2.544 3.488-2.544 0.228 0 0.513 0.018 0.81 0.051 0.061-0.217 0.077-0.312 0.077-0.429 0-0.437-0.346-0.599-1.273-0.599-0.567 0-1.207 0.070-1.65 0.184l-0.275 0.068-0.178 0.043 0.274-1.483c0.991-0.253 1.644-0.35 2.378-0.35 1.706 0 2.609 0.67 2.609 1.935 0 0.325-0.032 0.574-0.163 1.308-0.17 1.148-0.452 2.336-0.588 3.504z"></path>
<path fill="#003873" style="fill: var(--color14, #003873)" d="M25.456 16.383c0.011-0.138 0.016-0.252 0.016-0.338 0-0.534-0.347-0.851-0.939-0.851-0.633 0-1.083 0.423-1.267 1.183l2.189 0.006zM26.419 20.308c-0.681 0.181-1.338 0.269-2.035 0.268-2.22-0.001-3.376-1.016-3.376-2.954 0-2.266 1.471-3.932 3.47-3.932 1.635 0 2.679 0.934 2.679 2.398 0 0.486-0.072 0.96-0.244 1.627h-3.948c-0.016 0.103-0.020 0.148-0.020 0.209 0 0.766 0.588 1.154 1.742 1.154 0.709 0 1.351-0.129 2.062-0.418l-0.33 1.649z"></path>
<path fill="#003873" style="fill: var(--color14, #003873)" d="M45.599 16.671c0-0.689-0.279-1.341-1.094-1.341-1.013 0-1.641 1.199-1.641 2.261 0 0.895 0.43 1.495 1.14 1.481 0.43 0 1.347-0.587 1.529-1.614 0.042-0.238 0.065-0.503 0.065-0.787zM47.615 17.46c-0.296 2.194-1.824 3.169-3.857 3.169-2.246 0-3.154-1.368-3.154-3.041 0-2.339 1.536-3.923 3.91-3.923 2.060 0 3.154 1.304 3.154 2.977 0 0.406-0.001 0.435-0.053 0.818z"></path>
<path fill="#fff" style="fill: var(--color1, #fff)" d="M48.279 19.436h0.059c0.022 0 0.045 0.002 0.064-0.008 0.017-0.010 0.027-0.032 0.027-0.052 0-0.017-0.013-0.037-0.026-0.044-0.018-0.013-0.048-0.010-0.067-0.010h-0.057v0.115zM48.279 19.694h-0.105v-0.453h0.191c0.039 0 0.080 0 0.116 0.022 0.036 0.025 0.058 0.070 0.058 0.114 0 0.051-0.031 0.099-0.080 0.118l0.083 0.2h-0.117l-0.069-0.178h-0.077v0.178zM48.35 19.858c0.216 0 0.39-0.173 0.39-0.39s-0.174-0.393-0.39-0.393-0.391 0.176-0.391 0.393c0 0.217 0.175 0.39 0.391 0.39zM47.834 19.468c0-0.286 0.23-0.517 0.515-0.517 0.283 0 0.516 0.23 0.516 0.517 0 0.285-0.232 0.517-0.516 0.517-0.286 0-0.515-0.232-0.515-0.517z"></path>
<path fill="#fff" style="fill: var(--color1, #fff)" d="M13.963 19.985h-1.986l1.181-6.236-2.719 6.236h-1.81l-0.331-6.202-1.185 6.202h-1.801l1.54-8.112h3.099l0.164 5.022 2.186-5.022h3.228l-1.566 8.112z"></path>
<path fill="#fff" style="fill: var(--color1, #fff)" d="M36.156 19.903c-0.543 0.151-0.968 0.215-1.426 0.215-1.017 0-1.572-0.511-1.572-1.449 0-0.186 0.020-0.382 0.058-0.592l0.121-0.645 0.094-0.523 0.919-5.037h1.976l-0.287 1.517h1.014l-0.272 1.602h-1.020l-0.522 2.752c-0.023 0.122-0.033 0.212-0.033 0.273 0 0.341 0.204 0.491 0.677 0.491 0.225 0 0.402-0.022 0.535-0.064l-0.263 1.461z"></path>
<path fill="#003873" style="fill: var(--color14, #003873)" d="M41.259 15.281l-0.047-0.21 0.397-1.033c-0.093-0.010-0.132-0.011-0.151-0.018-0.106-0.023-0.162-0.035-0.171-0.036-0.060-0.011-0.126-0.017-0.2-0.017-0.652 0-1.122 0.29-1.729 1.070l0.208-1.173h-2.057l-1.223 6.588h1.973c0.272-1.513 0.391-2.375 0.552-3.087 0.264-1.189 1.146-1.728 1.775-1.608 0.069 0.014 0.131 0.016 0.222 0.051l0.121 0.046 0.33-0.573z"></path>
<path fill="#fff" style="fill: var(--color1, #fff)" d="M41.955 13.442c-0.167-0.065-0.205-0.065-0.225-0.072-0.106-0.023-0.16-0.036-0.171-0.038-0.060-0.011-0.126-0.018-0.2-0.018-0.652 0-1.122 0.292-1.729 1.073l0.175-0.998h-1.799l-1.211 6.597h1.987c0.711-4.035 1.016-4.743 1.97-4.743 0.071 0 0.154 0.006 0.251 0.016l0.231 0.049 0.72-1.866z"></path>
<path fill="#fff" style="fill: var(--color1, #fff)" d="M28.284 15.472c0 0.833 0.469 1.408 1.532 1.838 0.813 0.331 0.938 0.429 0.938 0.729 0 0.41-0.358 0.595-1.153 0.595-0.6 0-1.157-0.081-1.8-0.26l-0.275 1.521 0.089 0.015 0.369 0.068c0.117 0.021 0.294 0.038 0.525 0.056 0.477 0.038 0.847 0.056 1.107 0.056 2.12 0 3.099-0.695 3.099-2.201 0-0.906-0.409-1.437-1.415-1.837-0.843-0.333-0.94-0.407-0.94-0.714 0-0.356 0.333-0.539 0.983-0.539 0.394 0 0.933 0.038 1.444 0.098l0.286-1.527c-0.52-0.071-1.309-0.129-1.767-0.129-2.249 0-3.026 1.013-3.020 2.231z"></path>
<path fill="#fff" style="fill: var(--color1, #fff)" d="M18.97 17.045c-0.208-0.022-0.3-0.027-0.444-0.027-1.125 0-1.696 0.338-1.696 1.003 0 0.411 0.278 0.674 0.712 0.674 0.809 0 1.394-0.676 1.427-1.65zM20.419 19.985h-1.651l0.038-0.685c-0.502 0.541-1.171 0.799-2.082 0.799-1.077 0-1.814-0.735-1.814-1.803 0-1.606 1.284-2.543 3.488-2.543 0.225 0 0.513 0.017 0.81 0.051 0.060-0.218 0.076-0.313 0.076-0.43 0-0.437-0.345-0.6-1.273-0.6-0.566 0-1.209 0.071-1.65 0.184l-0.274 0.071-0.178 0.043 0.274-1.485c0.991-0.252 1.644-0.349 2.378-0.349 1.706 0 2.608 0.67 2.608 1.934 0 0.326-0.031 0.574-0.162 1.308-0.162 1.153-0.457 2.334-0.588 3.504z"></path>
<path fill="#fff" style="fill: var(--color1, #fff)" d="M25.876 15.917c0.011-0.138 0.016-0.251 0.016-0.337 0-0.536-0.348-0.851-0.939-0.851-0.63 0-1.084 0.423-1.268 1.183l2.191 0.005zM26.934 19.841c-0.683 0.18-1.341 0.269-2.037 0.269-2.219-0.003-3.376-1.016-3.376-2.956 0-2.266 1.473-3.934 3.472-3.934 1.633 0 2.678 0.935 2.678 2.399 0 0.485-0.071 0.96-0.245 1.628h-3.948c-0.016 0.102-0.020 0.148-0.020 0.209 0 0.763 0.591 1.154 1.743 1.154 0.71 0 1.351-0.13 2.063-0.418l-0.33 1.648z"></path>
<path fill="#fff" style="fill: var(--color1, #fff)" d="M46.084 16.149c0-0.69-0.28-1.342-1.095-1.342-1.013 0-1.642 1.202-1.642 2.261 0 0.895 0.432 1.497 1.142 1.483 0.429 0 1.347-0.589 1.529-1.616 0.042-0.238 0.065-0.503 0.065-0.786zM48.129 16.993c-0.298 2.194-1.825 3.169-3.858 3.169-2.248 0-3.154-1.368-3.154-3.042 0-2.338 1.536-3.921 3.91-3.921 2.060 0 3.153 1.303 3.153 2.976 0 0.407 0 0.434-0.051 0.818z"></path>
</symbol>

<symbol id="icon-mastercard-logo" viewBox="0 0 43 32">
<path fill="#253747" style="fill: var(--color15, #253747)" d="M2.188 0h38.291c1.208 0 2.188 1.146 2.188 2.56v26.88c0 1.414-0.98 2.56-2.188 2.56h-38.291c-1.208 0-2.188-1.146-2.188-2.56v-26.88c0-1.414 0.98-2.56 2.188-2.56z"></path>
<path fill="#fff" style="fill: var(--color1, #fff)" d="M11.545 29.891v-1.852c0-0.708-0.369-1.172-1.002-1.172-0.317 0-0.661 0.122-0.897 0.525-0.184-0.338-0.449-0.525-0.845-0.525-0.264 0-0.529 0.093-0.738 0.431v-0.37h-0.553v2.963h0.553v-1.636c0-0.525 0.237-0.773 0.605-0.773s0.553 0.277 0.553 0.773v1.636h0.553v-1.636c0-0.525 0.264-0.773 0.605-0.773 0.369 0 0.553 0.277 0.553 0.773v1.636h0.612zM19.751 26.928h-0.897v-0.895h-0.553v0.895h-0.501v0.586h0.501v1.359c0 0.68 0.237 1.079 0.87 1.079 0.237 0 0.501-0.093 0.685-0.216l-0.16-0.557c-0.16 0.122-0.344 0.155-0.476 0.155-0.264 0-0.369-0.187-0.369-0.493v-1.327h0.897v-0.586h0.003zM24.447 26.863c-0.317 0-0.529 0.187-0.661 0.431v-0.37h-0.553v2.963h0.553v-1.668c0-0.493 0.184-0.773 0.529-0.773 0.104 0 0.237 0.032 0.344 0.061l0.16-0.619c-0.111-0.025-0.267-0.025-0.372-0.025zM17.35 27.172c-0.264-0.216-0.633-0.309-1.030-0.309-0.633 0-1.054 0.37-1.054 0.956 0 0.493 0.317 0.773 0.87 0.863l0.264 0.032c0.289 0.061 0.449 0.155 0.449 0.309 0 0.216-0.212 0.37-0.581 0.37s-0.661-0.155-0.845-0.309l-0.264 0.493c0.289 0.248 0.685 0.37 1.082 0.37 0.738 0 1.162-0.403 1.162-0.956 0-0.525-0.344-0.802-0.87-0.895l-0.264-0.032c-0.237-0.032-0.421-0.093-0.421-0.277 0-0.216 0.184-0.338 0.476-0.338 0.317 0 0.633 0.155 0.793 0.248l0.234-0.525zM32.069 26.863c-0.317 0-0.529 0.187-0.661 0.431v-0.37h-0.553v2.963h0.553v-1.668c0-0.493 0.184-0.773 0.529-0.773 0.104 0 0.237 0.032 0.344 0.061l0.16-0.611c-0.108-0.032-0.264-0.032-0.372-0.032zM25 28.409c0 0.895 0.529 1.543 1.346 1.543 0.369 0 0.633-0.093 0.897-0.338l-0.264-0.525c-0.212 0.187-0.421 0.277-0.661 0.277-0.449 0-0.765-0.37-0.765-0.956 0-0.557 0.317-0.928 0.765-0.957 0.237 0 0.449 0.094 0.661 0.277l0.264-0.525c-0.264-0.248-0.529-0.338-0.897-0.338-0.818-0.004-1.346 0.647-1.346 1.543zM30.117 28.409v-1.482h-0.553v0.37c-0.184-0.277-0.449-0.431-0.793-0.431-0.713 0-1.266 0.647-1.266 1.543s0.553 1.543 1.266 1.543c0.369 0 0.633-0.155 0.793-0.431v0.37h0.553v-1.481zM28.086 28.409c0-0.525 0.289-0.957 0.765-0.957 0.449 0 0.765 0.403 0.765 0.957 0 0.525-0.317 0.956-0.765 0.956-0.473-0.032-0.765-0.435-0.765-0.956zM21.466 26.863c-0.738 0-1.266 0.618-1.266 1.543 0 0.928 0.529 1.543 1.294 1.543 0.369 0 0.738-0.122 1.030-0.403l-0.264-0.464c-0.212 0.187-0.476 0.309-0.738 0.309-0.344 0-0.685-0.187-0.765-0.708h1.872c0-0.094 0-0.155 0-0.248 0.025-0.953-0.452-1.571-1.162-1.571zM21.466 27.421c0.344 0 0.581 0.248 0.633 0.708h-1.318c0.052-0.399 0.289-0.708 0.685-0.708zM35.21 28.409v-2.654h-0.553v1.543c-0.184-0.277-0.449-0.431-0.793-0.431-0.713 0-1.266 0.647-1.266 1.543s0.553 1.543 1.266 1.543c0.369 0 0.633-0.155 0.793-0.431v0.37h0.553v-1.481zM33.178 28.409c0-0.525 0.289-0.957 0.765-0.957 0.449 0 0.765 0.403 0.765 0.957 0 0.525-0.317 0.956-0.765 0.956-0.476-0.032-0.765-0.435-0.765-0.956zM14.658 28.409v-1.482h-0.553v0.37c-0.184-0.277-0.449-0.431-0.793-0.431-0.713 0-1.266 0.647-1.266 1.543s0.553 1.543 1.266 1.543c0.369 0 0.633-0.155 0.793-0.431v0.37h0.553v-1.481zM12.602 28.409c0-0.525 0.289-0.957 0.765-0.957 0.449 0 0.765 0.403 0.765 0.957 0 0.525-0.317 0.956-0.765 0.956-0.476-0.032-0.765-0.435-0.765-0.956z"></path>
<path fill="#ff5a00" style="fill: var(--color16, #ff5a00)" d="M25.476 4.425h-8.311v17.469h8.31v-17.469z"></path>
<path fill="#eb001b" style="fill: var(--color17, #eb001b)" d="M17.718 13.159c0-3.549 1.426-6.699 3.614-8.734-1.61-1.482-3.642-2.377-5.858-2.377-5.249 0-9.497 4.969-9.497 11.111s4.247 11.111 9.497 11.111c2.216 0 4.247-0.895 5.858-2.377-2.191-2.006-3.614-5.185-3.614-8.734z"></path>
<path fill="#f79e1b" style="fill: var(--color18, #f79e1b)" d="M36.688 13.159c0 6.142-4.247 11.111-9.497 11.111-2.216 0-4.247-0.895-5.858-2.377 2.216-2.039 3.614-5.185 3.614-8.734s-1.426-6.699-3.614-8.734c1.607-1.482 3.639-2.377 5.855-2.377 5.252 0 9.5 5.002 9.5 11.111z"></path>
</symbol>

<symbol id="icon-molten-logo" viewBox="0 0 64 32">
<path d="M16.481 13.512v-6.996c0-0.717 0.275-1.566 1.331-1.566s1.33 1.073 1.33 1.566v6.996h2.858v-6.908c0-1.384-0.785-4.156-3.876-4.156-2.347 0-3.207 1.921-3.207 1.921s-0.861-1.921-3.209-1.921c-3.091 0-3.876 2.772-3.876 4.156v6.909h2.858v-6.996c0-0.493 0.275-1.566 1.33-1.566s1.33 0.849 1.33 1.566v6.996l3.129 0zM23.735 11.79c0.931 1.363 2.382 2.24 4.013 2.24s3.083-0.876 4.014-2.24h-8.028zM28.43 10.689c-0.665 0-1.32-0.691 0.147-1.383 0.55-0.26 1.695-1.132 1.969-2.227 0.274 2.481-0.825 3.61-2.116 3.61zM32.159 11.12c0.447-0.883 0.682-1.885 0.68-2.905 0-2.941-1.91-5.372-4.39-5.761 0.581 0.379 1.726 1.509 1.726 3.447 0 2.932-3.169 2.715-3.169 4.291 0 0.699 0.537 0.937 0.742 0.937l4.411-0.009zM26.768 11.128c-0.909-0.369-1.729-1.404-1.729-2.947 0-2.917 3.374-3.219 3.374-4.795 0-0.582-0.55-0.896-1.021-0.973-2.646 0.21-4.734 2.726-4.734 5.801 0 1.058 0.249 2.051 0.68 2.905l3.43 0.009zM33.432 13.511h2.875v-13.511h-2.875v13.511zM41.999 5.531v-2.648h-1.908v-2.848h-2.757v10.124c0 0.771 0.38 2.18 1.174 2.748 0.793 0.57 1.467 0.738 3.491 0.738v-2.85c-0.674 0.168-1.908 0.201-1.908-1.274v-3.991l1.908 0zM44.898 6.773c0.267-1.525 1.023-2.247 2.266-2.247 0.544-0.024 1.074 0.199 1.476 0.62s0.64 1.005 0.666 1.627l-4.407 0zM52.122 7.075c-0.205-2.449-2.228-4.93-4.958-4.93-2.728 0-5.106 2.448-5.106 6.137 0 1.407 0.822 5.564 4.93 5.564s5.018-3.083 5.018-3.788h-2.788c-0.058 0.201-0.381 1.442-2.172 1.442-1.368 0-2.099-0.675-2.235-2.582h7.341c0-0.569 0.028-1.073-0.030-1.843zM57.007 4.761c1.176 0 1.395 1.307 1.395 1.643v7.108h2.817v-6.706c0-1.106-0.425-4.626-4.212-4.626-3.784 0-4.209 3.521-4.209 4.627v6.706h2.816v-7.109c0-0.336 0.22-1.642 1.393-1.642zM60.359 1.949c0-0.32 0.108-0.623 0.309-0.848 0.097-0.112 0.212-0.202 0.34-0.262s0.264-0.092 0.402-0.091c0.139-0.001 0.276 0.030 0.404 0.091s0.244 0.15 0.341 0.262c0.098 0.111 0.176 0.243 0.228 0.389s0.080 0.302 0.080 0.459c-0.001 0.319-0.112 0.625-0.309 0.85s-0.465 0.352-0.744 0.352c-0.138 0.001-0.274-0.030-0.402-0.091s-0.243-0.149-0.34-0.261c-0.099-0.111-0.177-0.244-0.23-0.39s-0.080-0.303-0.079-0.461h0zM61.41 3.389c0.165 0.001 0.33-0.036 0.482-0.109s0.292-0.179 0.408-0.313c0.117-0.133 0.21-0.292 0.273-0.467s0.095-0.362 0.095-0.551c0.001-0.189-0.031-0.376-0.095-0.55s-0.156-0.333-0.273-0.466c-0.117-0.134-0.255-0.24-0.408-0.312s-0.317-0.109-0.482-0.109c-0.692 0-1.258 0.644-1.258 1.437 0 0.384 0.132 0.746 0.369 1.018 0.116 0.134 0.255 0.24 0.408 0.312s0.316 0.109 0.481 0.109z"></path>
<path d="M61.069 2.736v-0.677h0.426c0.078 0 0.134 0.009 0.169 0.028 0.064 0.036 0.099 0.104 0.101 0.207l0.011 0.265 0.010 0.124 0.014 0.054h0.232v-0.034l-0.061-0.098-0.013-0.135-0.007-0.211c-0.003-0.092-0.019-0.159-0.046-0.199l-0.122-0.1 0.143-0.144c0.036-0.061 0.051-0.138 0.051-0.233 0-0.181-0.064-0.305-0.194-0.372-0.068-0.036-0.155-0.054-0.26-0.054h-0.641v1.581h0.187zM61.069 1.34h0.459l0.153 0.032c0.071 0.041 0.107 0.116 0.107 0.23 0 0.104-0.027 0.178-0.077 0.218-0.052 0.040-0.122 0.060-0.208 0.060h-0.434v-0.54zM25.037 21.040c1.179-0.483 1.546-1.233 1.575-1.646 0.001-0.062 0.011-0.106-0.093-0.106-0.161 0-0.473 0.133-0.676 0.297-0.375 0.307-0.744 0.887-0.807 1.455zM28.114 20.404c-0.194 0.775-1.813 2.133-3.342 2.133-0.256 0-0.444-0.154-0.439-0.636 0.002-0.147 0.018-0.293 0.047-0.436-0.689 0.436-1.776 0.996-2.039 0.996-0.055 0-0.153-0.058-0.15-0.277 0.007-0.463 0.26-1.218 0.685-2.095 0.116-0.229 0.14-0.287 0.141-0.341s-0.025-0.136-0.114-0.136c-0.382 0-1.651 1.308-2.474 2.912l-0.024 0.019-0.086 0.020c-0.060 0.013-0.112-0.057-0.109-0.241 0-0.367 0.224-1.087 0.518-1.789-0.63 0.474-2.81 2.071-3.131 2.071-0.1 0-0.134-0.102-0.125-0.285 0.051-0.58 0.498-1.579 0.976-2.473-0.292 0.075-0.563 0.156-0.757 0.232l-0.031-0.038 0.214-0.317 0.072-0.059c0.181-0.063 0.431-0.123 0.7-0.179 0.434-0.777 0.852-1.409 0.98-1.509 0.11-0.083 0.248-0.116 0.657-0.132l0.015 0.035c-0.109 0.136-0.496 0.765-0.898 1.472 0.369-0.056 0.685-0.093 0.806-0.099 0.078-0.004 0.112 0.024 0.090 0.057l-0.095 0.14-0.078 0.040c-0.301 0.051-0.6 0.109-0.899 0.175-0.369 0.661-0.721 1.34-0.856 1.721-0.044 0.121-0.032 0.164 0.098 0.111 0.565-0.23 1.887-0.918 2.352-1.162 0.822-1.799 1.951-3.407 2.33-3.714 0.214-0.173 0.431-0.204 0.712-0.219l0.013 0.036c-0.676 0.861-1.84 2.666-2.494 4.207 1.192-1.262 2.017-1.663 2.524-1.648 0.084 0.004 0.134 0.066 0.077 0.18-0.289 0.597-0.744 1.585-0.986 2.387-0.026 0.084-0.037 0.128 0.069 0.106 0.373-0.083 0.941-0.282 1.383-0.456 0.154-0.525 0.463-1.051 0.873-1.456 0.484-0.483 1.404-0.88 1.948-0.829l0.080 0.080c0.023 0.071 0.023 0.146 0.001 0.255-0.202 0.755-1.067 1.456-2.304 2.103 0.021 0.41 0.1 0.526 0.322 0.526 0.923 0 2.446-0.952 2.677-1.548 0.024-0.069 0.101-0.044 0.076 0.060zM12.755 16.904c-1.576 0-4.067 0.232-4.339 0.259l-0.119 0.055c-0.125 0.123-0.512 0.602-0.565 0.694-0.021 0.039-0.052 0.094 0.052 0.076l1.053-0.224c-1.21 1.322-2.107 2.881-3.152 5.412-0.032 0.090-0.017 0.114 0.047 0.101 0.238-0.053 0.675-0.155 0.934-0.252 0.402-1.005 0.86-1.98 1.373-2.917 0.684-0.207 1.466-0.405 2.118-0.463l0.070-0.049 0.189-0.239c0.051-0.072 0.023-0.086-0.192-0.083-0.439 0.007-1.149 0.077-1.817 0.189 0.43-0.724 0.882-1.38 1.322-1.87 1.052-0.13 1.974-0.254 2.885-0.341l0.099-0.035 0.173-0.21c0.065-0.081 0.033-0.105-0.129-0.105l0 0zM38.534 19.509c-0.446-0.211-1.396-0.080-2.027 0.676-0.524 0.664-0.531 1.242-0.32 1.338l0.133-0.018c0.489-0.405 1.661-1.477 2.214-1.996zM32.936 21.040c1.179-0.483 1.547-1.233 1.576-1.646 0.001-0.062 0.010-0.106-0.093-0.106-0.161 0-0.473 0.133-0.677 0.297-0.375 0.307-0.744 0.887-0.807 1.455zM40.558 21.323c-0.050 0.146-0.006 0.208 0.061 0.178 0.554-0.247 1.682-0.823 1.927-0.954 0.086-0.046 0.087 0.041 0.012 0.1-0.521 0.413-2.372 1.868-2.756 1.868-0.104 0-0.156-0.071-0.156-0.205 0.001-0.261 0.132-0.872 0.41-1.543-0.636 0.519-2.273 1.724-2.492 1.724-0.175 0-0.176-0.139-0.178-0.27 0.006-0.452 0.224-1.068 0.694-1.977-0.762 0.765-2.261 2.258-2.671 2.258-0.151 0-0.241-0.146-0.242-0.383-0.001-0.235 0.069-0.519 0.192-0.807-0.685 0.586-1.748 1.226-2.687 1.226-0.255 0-0.445-0.154-0.439-0.636 0.009-0.722 0.391-1.559 0.983-2.145 0.485-0.483 1.405-0.88 1.948-0.829l0.079 0.080c0.023 0.071 0.023 0.146 0.001 0.255-0.2 0.755-1.066 1.456-2.304 2.103 0.021 0.41 0.1 0.526 0.322 0.526 0.592 0 1.716-0.623 2.349-1.068 0.082-0.135 0.174-0.266 0.274-0.389 0.884-1.087 2.156-1.619 3.527-1.456l0.016 0.057c-0.326 0.549-0.89 1.592-1.121 2.344-0.029 0.090-0.028 0.128 0.049 0.093 0.45-0.209 1.432-0.704 1.777-0.888l0.019-0.041c0.531-1.163 1.266-2.594 2.288-3.796 0.196-0.23 0.439-0.291 0.847-0.338l0.028 0.034c-0.49 0.674-2.005 2.756-2.757 4.88zM58.83 21.040c1.179-0.483 1.547-1.233 1.577-1.646 0-0.062 0.010-0.106-0.094-0.106-0.16 0-0.473 0.133-0.676 0.297-0.375 0.307-0.744 0.887-0.807 1.455zM50.942 19.509c-0.446-0.211-1.397-0.080-2.027 0.676-0.524 0.664-0.53 1.242-0.32 1.338l0.132-0.018c0.49-0.405 1.662-1.477 2.215-1.996zM46.802 19.49c-0.049-0.026-0.158-0.070-0.332-0.072-0.55-0.009-1.175 0.292-1.557 0.729-0.273 0.309-0.462 0.773-0.468 1.133-0.002 0.121 0.031 0.262 0.13 0.262 0.214 0 1.749-1.536 2.227-2.051zM45.388 22.302c-0.49 0.393-1.106 0.939-1.154 1.828-0.011 0.21 0.044 0.293 0.156 0.293 0.084 0 0.15-0.052 0.251-0.253 0.131-0.268 0.62-1.458 0.748-1.868zM61.907 20.404c-0.193 0.775-1.813 2.133-3.342 2.133-0.255 0-0.444-0.154-0.438-0.636 0.002-0.146 0.019-0.297 0.050-0.449-0.68 0.439-1.772 1.015-2.040 1.015-0.093 0-0.182-0.059-0.182-0.277 0.001-0.595 0.651-1.953 0.774-2.226 0.071-0.149 0.080-0.197 0.080-0.229l-0.103-0.111c-0.084 0-0.261 0.094-0.391 0.18-0.766 0.579-1.441 1.446-2.068 2.599l-0.102 0.059-0.034 0.007c-0.089 0.014-0.144-0.117-0.144-0.26 0-0.436 0.361-1.477 0.79-2.27 0.076-0.138 0.090-0.166 0.090-0.214l-0.105-0.1c-0.159 0-0.575 0.314-0.912 0.627-0.227 0.213-0.971 0.972-1.56 2.13l-0.104 0.081-0.030 0.007c-0.049 0.012-0.133-0.040-0.133-0.241 0-0.338 0.16-0.868 0.38-1.396-0.684 0.547-2.201 1.659-2.412 1.659-0.174 0-0.176-0.139-0.178-0.27 0.007-0.452 0.224-1.068 0.695-1.977-0.762 0.765-2.262 2.258-2.671 2.258-0.151 0-0.242-0.146-0.243-0.383 0-0.445 0.249-1.062 0.631-1.572-0.412 0.257-1.262 0.802-1.987 1.29-0.545 1.167-0.986 2.007-1.633 2.699-0.353 0.376-0.685 0.617-0.873 0.617-0.116 0-0.255-0.109-0.251-0.422 0.033-1.202 1.542-2.497 2.115-2.935 0.203-0.46 0.45-1.011 0.634-1.391-0.361 0.339-1.852 1.742-1.852 1.742-0.272 0.244-0.472 0.357-0.63 0.357-0.203 0-0.234-0.215-0.234-0.354 0-0.608 0.472-1.493 1.123-2.106 1.102-1.041 2.65-1.060 3.097-1.041l0.015 0.033c-0.617 0.882-1.282 2.291-1.293 2.316 0.586-0.379 1.697-0.928 1.994-1.075 0.876-0.979 2.087-1.452 3.389-1.297l0.017 0.057c-0.327 0.549-0.891 1.592-1.123 2.344-0.027 0.090-0.027 0.128 0.050 0.093 0.422-0.196 1.316-0.645 1.709-0.852 0.25-0.56 0.554-1.086 0.787-1.339 0.178-0.178 0.567-0.172 0.682-0.163l0.019 0.053c-0.317 0.531-0.54 0.88-0.811 1.539 1.031-1.064 1.868-1.772 2.577-1.66 0.11 0.021 0.108 0.096 0.069 0.172-0.166 0.338-0.545 1.114-0.715 1.537 0.834-0.931 1.889-1.792 2.597-1.754 0.079 0.005 0.149 0.055 0.093 0.167-0.284 0.572-0.772 1.688-0.984 2.389-0.026 0.084-0.036 0.128 0.069 0.106 0.362-0.087 0.968-0.301 1.383-0.462 0.155-0.523 0.464-1.046 0.871-1.449 0.485-0.483 1.404-0.88 1.948-0.829l0.080 0.080c0.023 0.071 0.023 0.146 0.001 0.255-0.201 0.755-1.067 1.456-2.304 2.103 0.021 0.41 0.1 0.526 0.321 0.526 0.924 0 2.447-0.952 2.678-1.548 0.026-0.069 0.102-0.044 0.076 0.060zM12.556 19.722c0.001-0.205-0.131-0.329-0.35-0.329-0.133 0.001-0.299 0.053-0.481 0.151-0.623 0.342-1.093 1.041-1.093 1.626 0 0.275 0.085 0.458 0.126 0.517 0.070 0.099 0.113 0.069 0.21 0.043 0.248-0.072 0.624-0.365 0.931-0.737 0.399-0.483 0.657-0.98 0.656-1.271zM11.949 21.44c-0.531 0.668-1.185 1.087-1.518 1.081-0.374-0.007-0.455-0.443-0.45-0.744 0.015-0.921 0.759-2.032 1.748-2.57 0.358-0.195 0.632-0.262 0.944-0.246l0.126 0.078c0.239 0.256 0.424 0.798-0.85 2.401zM31.018 19.155l-0.014-0.032c-0.507 0-0.658 0.085-0.951 0.533-0.478 0.753-1.042 2.244-1.052 2.724-0.003 0.184 0.050 0.255 0.109 0.241l0.114-0.027 0.022-0.018c0.896-1.77 1.912-2.778 3.159-2.959l0.027-0.015c0.104-0.17 0.265-0.385 0.391-0.535l-0.012-0.035-0.155-0.017c-0.289-0.024-0.599 0.11-0.838 0.256-0.421 0.275-1.048 0.781-1.536 1.311 0.099-0.242 0.237-0.567 0.413-0.887 0.112-0.202 0.273-0.46 0.322-0.541zM14.554 19.696c-0.176 0.32-0.314 0.645-0.413 0.887 0.488-0.53 1.115-1.036 1.536-1.311 0.238-0.146 0.549-0.28 0.837-0.256l0.157 0.017 0.010 0.035c-0.127 0.15-0.288 0.365-0.392 0.535l-0.027 0.015c-1.247 0.181-2.263 1.188-3.159 2.959l-0.022 0.018-0.114 0.027c-0.059 0.014-0.112-0.057-0.109-0.241 0.010-0.48 0.575-1.971 1.052-2.724 0.293-0.448 0.444-0.533 0.951-0.533l0.014 0.032c-0.049 0.081-0.209 0.338-0.322 0.541z"></path>
</symbol>

<symbol id="icon-nike-logo" viewBox="0 0 32 32">
<path fill="#fff" style="fill: var(--color1, #fff)" d="M0 0h32v32h-32v-32z"></path>
<path fill="#000" style="fill: var(--color2, #000)" d="M5.673 17.823c-0.247 0-0.44 0.173-0.44 0.425s0.194 0.424 0.44 0.424c0.246 0 0.44-0.173 0.44-0.424s-0.194-0.425-0.44-0.425zM5.673 18.551c-0.176 0-0.307-0.129-0.307-0.303s0.13-0.304 0.307-0.304c0.175 0 0.307 0.132 0.307 0.304s-0.133 0.303-0.307 0.303zM9.959 16.337h-2.144l0.244-3.727-1.392 3.727h-1.991l3.159-8.423h2.119l-0.245 3.778 1.419-3.778h1.991l-3.159 8.423zM10.218 16.337l3.159-8.423h1.991l-3.159 8.423h-1.991z"></path>
<path fill="#000" style="fill: var(--color2, #000)" d="M4.446 13.433c-2.782 3.267-5.407 7.615-3.088 9.617 2.246 1.94 5.054 0.791 6.969 0.026s23.075-9.955 23.075-9.955c0.204-0.102 0.166-0.23-0.089-0.166-0.103 0.026-23.037 6.241-23.037 6.241-2.91 0.817-6.228-0.964-3.829-5.762z"></path>
<path fill="#000" style="fill: var(--color2, #000)" d="M5.748 18.278c0.062-0.003 0.11-0.035 0.11-0.12 0-0.11-0.072-0.138-0.192-0.138h-0.173v0.457h0.115v-0.195h0.019l0.105 0.195h0.133l-0.117-0.199zM5.674 18.204h-0.066v-0.106h0.055c0.034 0 0.073 0.004 0.073 0.048 0 0.048-0.023 0.058-0.063 0.058zM25.688 7.888c-0.247 0-0.44 0.173-0.44 0.425s0.195 0.424 0.44 0.424c0.246 0 0.44-0.173 0.44-0.424 0-0.252-0.193-0.425-0.44-0.425zM25.688 8.615c-0.176 0-0.307-0.129-0.307-0.303s0.13-0.303 0.307-0.303c0.175 0 0.307 0.132 0.307 0.303s-0.133 0.303-0.307 0.303z"></path>
<path fill="#000" style="fill: var(--color2, #000)" d="M25.763 8.342c0.062-0.003 0.11-0.035 0.11-0.12 0-0.11-0.072-0.138-0.192-0.138h-0.173v0.457h0.115v-0.194h0.020l0.105 0.194h0.133l-0.117-0.199zM25.689 8.268h-0.066v-0.106h0.056c0.034 0 0.073 0.004 0.073 0.048 0 0.047-0.023 0.058-0.063 0.058zM24.376 9.317l0.535-1.404h-6.075l-2.086 2.527 0.963-2.527h-2.016l-3.134 8.423h1.991l1.338-3.522 0.092 3.522 6.109-0.013 0.581-1.62h-2.323l0.763-2.042h1.914l0.589-1.57h-1.914l0.656-1.774h2.016zM17.959 15.775l-0.128-4.39 3.010-3.305-2.883 7.695z"></path>
</symbol>

<symbol id="icon-pencil-square" viewBox="0 0 32 32">
<path fill="#001746" style="fill: var(--color19, #001746)" d="M31.004 3.88c0.187 0.187 0.292 0.441 0.292 0.706s-0.105 0.519-0.292 0.706l-2.086 2.088-4-4 2.086-2.088c0.188-0.187 0.442-0.293 0.707-0.293s0.519 0.105 0.707 0.293l2.586 2.588zM27.504 8.792l-4-4-13.626 13.628c-0.11 0.11-0.193 0.244-0.242 0.392l-1.61 4.828c-0.029 0.088-0.033 0.182-0.012 0.273s0.067 0.173 0.133 0.238 0.148 0.112 0.238 0.133c0.090 0.021 0.185 0.017 0.273-0.012l4.828-1.61c0.148-0.048 0.282-0.131 0.392-0.24l13.626-13.63z"></path>
<path fill="#001746" style="fill: var(--color19, #001746)" d="M2 27c0 0.796 0.316 1.559 0.879 2.121s1.326 0.879 2.121 0.879h22c0.796 0 1.559-0.316 2.121-0.879s0.879-1.326 0.879-2.121v-12c0-0.265-0.105-0.52-0.293-0.707s-0.442-0.293-0.707-0.293-0.52 0.105-0.707 0.293c-0.187 0.188-0.293 0.442-0.293 0.707v12c0 0.265-0.105 0.52-0.293 0.707s-0.442 0.293-0.707 0.293h-22c-0.265 0-0.52-0.105-0.707-0.293s-0.293-0.442-0.293-0.707v-22c0-0.265 0.105-0.52 0.293-0.707s0.442-0.293 0.707-0.293h13c0.265 0 0.52-0.105 0.707-0.293s0.293-0.442 0.293-0.707c0-0.265-0.105-0.52-0.293-0.707s-0.442-0.293-0.707-0.293h-13c-0.796 0-1.559 0.316-2.121 0.879s-0.879 1.326-0.879 2.121v22z"></path>
</symbol>

<symbol id="icon-person" viewBox="0 0 31 32">
<path d="M15.36 16c1.528 0 2.993-0.607 4.073-1.687s1.687-2.545 1.687-4.073c0-1.528-0.607-2.993-1.687-4.073s-2.545-1.687-4.073-1.687c-1.528 0-2.993 0.607-4.073 1.687s-1.687 2.545-1.687 4.073c0 1.528 0.607 2.993 1.687 4.073s2.545 1.687 4.073 1.687zM19.2 10.24c0 1.018-0.405 1.995-1.125 2.715s-1.697 1.125-2.715 1.125c-1.018 0-1.995-0.405-2.715-1.125s-1.125-1.697-1.125-2.715c0-1.018 0.405-1.995 1.125-2.715s1.697-1.125 2.715-1.125c1.018 0 1.995 0.405 2.715 1.125s1.125 1.697 1.125 2.715zM26.88 25.6c0 1.92-1.92 1.92-1.92 1.92h-19.2c0 0-1.92 0-1.92-1.92s1.92-7.68 11.52-7.68c9.6 0 11.52 5.76 11.52 7.68zM24.96 25.592c-0.002-0.472-0.296-1.893-1.597-3.195-1.252-1.252-3.608-2.557-8.003-2.557-4.397 0-6.751 1.306-8.003 2.557-1.302 1.302-1.594 2.723-1.597 3.195h19.2z"></path>
</symbol>

<symbol id="icon-search" viewBox="0 0 31 32">
<path  d="M22.544 20.5c1.859-2.537 2.692-5.682 2.331-8.807s-1.887-5.998-4.275-8.045c-2.388-2.047-5.46-3.117-8.603-2.996s-6.124 1.424-8.347 3.649c-2.223 2.225-3.524 5.207-3.643 8.35s0.953 6.215 3.002 8.601c2.049 2.386 4.923 3.911 8.048 4.269s6.27-0.477 8.805-2.338h-0.002c0.058 0.077 0.119 0.15 0.188 0.221l7.392 7.392c0.36 0.36 0.848 0.563 1.358 0.563s0.998-0.202 1.358-0.562c0.36-0.36 0.563-0.849 0.563-1.358s-0.202-0.998-0.562-1.358l-7.392-7.392c-0.069-0.070-0.142-0.134-0.221-0.192v0.002zM23.039 13.12c0 1.387-0.273 2.76-0.804 4.041s-1.309 2.445-2.289 3.426c-0.981 0.981-2.145 1.758-3.426 2.289s-2.654 0.804-4.041 0.804-2.76-0.273-4.041-0.804c-1.281-0.531-2.445-1.309-3.426-2.289s-1.758-2.145-2.289-3.426c-0.531-1.281-0.804-2.654-0.804-4.041 0-2.801 1.113-5.487 3.093-7.467s4.666-3.093 7.467-3.093c2.801 0 5.487 1.113 7.467 3.093s3.093 4.666 3.093 7.467z"></path>
</symbol>

<symbol id="icon-select-logo" viewBox="0 0 32 32">
<path d="M1.682 29.184c-0.072-0.082-0.166-0.147-0.282-0.193s-0.254-0.071-0.412-0.071c-0.161 0-0.299 0.024-0.413 0.071s-0.21 0.111-0.284 0.193v1.319c0.075 0.080 0.177 0.143 0.306 0.192s0.275 0.072 0.437 0.072c0.158 0 0.287-0.024 0.389-0.072s0.188-0.112 0.26-0.192v-1.319zM1.884 30.728c-0.058 0.073-0.134 0.132-0.226 0.178s-0.194 0.081-0.305 0.102c-0.112 0.021-0.22 0.031-0.324 0.031-0.056 0-0.117-0.003-0.183-0.010s-0.131-0.017-0.196-0.030c-0.065-0.013-0.129-0.029-0.192-0.048s-0.119-0.042-0.169-0.067v0.976c0 0.039-0.015 0.072-0.042 0.099-0.029 0.027-0.063 0.041-0.105 0.041s-0.075-0.014-0.102-0.041c-0.027-0.027-0.041-0.060-0.041-0.1v-2.645c0-0.099 0.032-0.184 0.094-0.257s0.142-0.131 0.238-0.178c0.097-0.047 0.203-0.081 0.318-0.102s0.227-0.032 0.334-0.032c0.104 0 0.214 0.012 0.33 0.032s0.223 0.055 0.319 0.101c0.097 0.047 0.177 0.106 0.241 0.178s0.096 0.158 0.096 0.257v1.257c0 0.099-0.029 0.184-0.087 0.256z"></path>
<path d="M2.788 31.006v-3.174c0-0.039 0.014-0.071 0.040-0.099s0.060-0.040 0.103-0.040c0.042 0 0.076 0.014 0.104 0.040 0.028 0.027 0.042 0.060 0.042 0.099v3.174h-0.289z"></path>
<path d="M5.672 29.804l-0.797 0.173c-0.114 0.026-0.206 0.046-0.278 0.062s-0.13 0.028-0.175 0.040c-0.045 0.011-0.078 0.023-0.098 0.034s-0.035 0.025-0.045 0.042v0.415c0.074 0.082 0.177 0.135 0.306 0.159s0.296 0.036 0.499 0.036c0.078 0 0.169-0.009 0.275-0.024s0.21-0.034 0.311-0.054v-0.886zM5.564 31c-0.158 0.027-0.318 0.040-0.478 0.040-0.118 0-0.242-0.007-0.37-0.021s-0.246-0.040-0.353-0.076c-0.107-0.037-0.195-0.086-0.266-0.147s-0.105-0.139-0.105-0.236v-0.4c0-0.079 0.024-0.144 0.073-0.193s0.112-0.090 0.19-0.121c0.078-0.031 0.166-0.057 0.264-0.079s0.197-0.043 0.295-0.066l0.859-0.191v-0.327c-0.075-0.083-0.17-0.147-0.284-0.193s-0.253-0.071-0.413-0.071c-0.081 0-0.161 0.006-0.242 0.015-0.081 0.012-0.155 0.022-0.223 0.035s-0.13 0.026-0.184 0.039c-0.054 0.013-0.092 0.024-0.116 0.032v-0.288c0.042-0.017 0.095-0.033 0.158-0.046s0.132-0.026 0.204-0.034c0.072-0.009 0.143-0.015 0.215-0.019s0.134-0.007 0.188-0.007c0.107 0 0.219 0.011 0.335 0.032s0.223 0.055 0.32 0.101c0.097 0.047 0.177 0.106 0.239 0.179s0.094 0.158 0.094 0.256v1.702c-0.107 0.028-0.24 0.056-0.398 0.083z"></path>
<path d="M8.584 31.725c-0.069 0.062-0.156 0.111-0.263 0.146s-0.226 0.061-0.355 0.075c-0.13 0.013-0.254 0.021-0.374 0.021-0.081 0-0.165-0.007-0.253-0.019s-0.173-0.033-0.253-0.061c-0.039-0.011-0.067-0.033-0.085-0.067s-0.019-0.069-0.004-0.105c0.014-0.037 0.039-0.064 0.074-0.081s0.071-0.019 0.109-0.004c0.060 0.020 0.124 0.035 0.192 0.047s0.143 0.016 0.22 0.016c0.203 0 0.37-0.013 0.502-0.036 0.132-0.024 0.233-0.078 0.306-0.161v-0.614c-0.099 0.054-0.21 0.093-0.336 0.118s-0.244 0.038-0.358 0.038c-0.108 0-0.22-0.010-0.336-0.032s-0.223-0.056-0.319-0.102c-0.097-0.046-0.177-0.106-0.239-0.178-0.063-0.072-0.094-0.158-0.094-0.257v-1.79h0.289v1.823c0.075 0.079 0.17 0.143 0.284 0.191s0.253 0.073 0.414 0.073c0.158 0 0.295-0.025 0.412-0.073s0.21-0.112 0.282-0.191v-1.823h0.288v2.807c0 0.096-0.034 0.175-0.103 0.238z"></path>
<path d="M10.846 28.991c-0.117-0.047-0.255-0.071-0.414-0.071-0.163 0-0.302 0.024-0.417 0.071s-0.21 0.112-0.286 0.194v0.522h1.401v-0.522c-0.072-0.082-0.167-0.147-0.284-0.194zM9.728 29.98v0.522c0.075 0.079 0.171 0.144 0.286 0.192s0.254 0.073 0.417 0.073c0.18 0 0.324-0.013 0.43-0.036 0.106-0.024 0.196-0.048 0.268-0.070 0.038-0.014 0.075-0.013 0.11 0.004s0.059 0.044 0.074 0.080c0.015 0.037 0.014 0.071-0.005 0.104s-0.046 0.056-0.085 0.069c-0.12 0.042-0.239 0.073-0.359 0.093s-0.264 0.029-0.432 0.029c-0.109 0-0.22-0.011-0.337-0.032s-0.224-0.055-0.321-0.101c-0.097-0.047-0.177-0.106-0.24-0.178s-0.095-0.158-0.095-0.257v-1.256c0-0.099 0.032-0.184 0.094-0.257s0.142-0.131 0.239-0.178c0.097-0.046 0.204-0.081 0.32-0.102s0.229-0.031 0.337-0.031c0.104 0 0.214 0.011 0.331 0.031 0.116 0.021 0.223 0.056 0.32 0.102s0.178 0.106 0.241 0.178c0.065 0.072 0.097 0.157 0.097 0.256v0.766h-1.69z"></path>
<path d="M13.636 28.979c-0.034 0.017-0.071 0.019-0.11 0.004-0.060-0.020-0.124-0.036-0.192-0.046s-0.142-0.017-0.22-0.017c-0.161 0-0.297 0.020-0.406 0.059s-0.207 0.088-0.293 0.145v1.883h-0.29v-1.85c0-0.091 0.032-0.168 0.094-0.233s0.142-0.119 0.237-0.16c0.095-0.041 0.201-0.071 0.318-0.089s0.231-0.028 0.341-0.028c0.081 0 0.165 0.007 0.253 0.019 0.088 0.013 0.173 0.031 0.254 0.057 0.039 0.014 0.067 0.038 0.085 0.071s0.020 0.068 0.005 0.105c-0.015 0.037-0.040 0.064-0.074 0.081z"></path>
<path d="M14.578 28.27c-0.023 0.031-0.055 0.049-0.094 0.055s-0.075-0.003-0.108-0.026c-0.033-0.022-0.053-0.052-0.059-0.089s0.003-0.072 0.027-0.102l0.332-0.437h0.358l-0.457 0.598z"></path>
<path d="M16.387 30.727c-0.063 0.072-0.143 0.132-0.239 0.178s-0.204 0.081-0.32 0.102c-0.116 0.021-0.226 0.031-0.33 0.031-0.113 0-0.232-0.009-0.356-0.023-0.123-0.016-0.236-0.043-0.337-0.083v-0.276c0.078 0.026 0.173 0.051 0.284 0.074s0.248 0.035 0.41 0.035c0.158 0 0.295-0.024 0.41-0.073s0.21-0.111 0.284-0.191v-0.344c-0.009-0.017-0.024-0.031-0.045-0.043s-0.054-0.022-0.098-0.034c-0.045-0.011-0.103-0.025-0.174-0.041s-0.164-0.036-0.278-0.061l-0.044-0.008-0.295-0.059c-0.098-0.020-0.186-0.046-0.264-0.076s-0.14-0.072-0.19-0.121c-0.049-0.050-0.074-0.112-0.074-0.189v-0.31c0-0.1 0.032-0.185 0.097-0.258s0.144-0.131 0.241-0.178c0.097-0.047 0.204-0.081 0.32-0.102s0.226-0.032 0.331-0.032c0.109 0 0.227 0.007 0.352 0.024s0.238 0.044 0.34 0.083v0.276c-0.078-0.026-0.173-0.050-0.284-0.073s-0.25-0.035-0.411-0.035c-0.158 0-0.296 0.024-0.413 0.071s-0.211 0.111-0.283 0.193v0.34c0.009 0.017 0.024 0.032 0.045 0.042s0.053 0.023 0.096 0.034c0.044 0.011 0.103 0.025 0.175 0.040 0.074 0.016 0.166 0.036 0.276 0.062l0.045 0.009 0.296 0.059c0.099 0.020 0.188 0.046 0.267 0.076s0.143 0.072 0.19 0.121c0.048 0.050 0.072 0.113 0.072 0.189v0.315c0 0.099-0.031 0.185-0.094 0.257z"></path>
<path d="M19.937 31.017c-0.125 0.016-0.244 0.024-0.354 0.024-0.108 0-0.22-0.011-0.336-0.032s-0.223-0.055-0.32-0.102c-0.097-0.046-0.176-0.106-0.239-0.178s-0.094-0.158-0.094-0.257v-1.257c0-0.098 0.032-0.184 0.094-0.256s0.142-0.131 0.239-0.178c0.097-0.046 0.203-0.080 0.32-0.101s0.229-0.033 0.336-0.033c0.11 0 0.229 0.014 0.354 0.024 0.125 0.016 0.239 0.043 0.341 0.082v0.276c-0.078-0.026-0.174-0.051-0.288-0.074s-0.25-0.035-0.407-0.035c-0.161 0-0.3 0.024-0.415 0.071s-0.21 0.111-0.284 0.193v1.32c0.075 0.079 0.169 0.143 0.284 0.191s0.254 0.073 0.415 0.073c0.158 0 0.294-0.012 0.407-0.035s0.21-0.048 0.288-0.073v0.276c-0.102 0.040-0.216 0.067-0.341 0.083z"></path>
<path d="M23.008 30.999c-0.028 0.027-0.063 0.040-0.103 0.040-0.041 0-0.075-0.013-0.103-0.040s-0.041-0.060-0.041-0.1v-1.717c-0.072-0.082-0.158-0.146-0.26-0.193s-0.232-0.070-0.389-0.070c-0.161 0-0.307 0.024-0.437 0.070s-0.232 0.111-0.306 0.194v1.823h-0.289v-3.174c0-0.039 0.014-0.073 0.041-0.099 0.029-0.027 0.063-0.041 0.105-0.041s0.075 0.014 0.102 0.040c0.027 0.027 0.041 0.060 0.041 0.1v0.969c0.050-0.025 0.106-0.047 0.169-0.067s0.126-0.035 0.192-0.048c0.065-0.014 0.13-0.023 0.196-0.030 0.065 0 0.126-0.014 0.182-0.014 0.105 0 0.212 0.014 0.324 0.031 0.112 0.021 0.214 0.055 0.306 0.102s0.168 0.106 0.226 0.178c0.057 0.073 0.087 0.158 0.087 0.257v1.685c0 0.040-0.014 0.073-0.041 0.1z"></path>
<path d="M25.492 29.184c-0.071-0.082-0.166-0.147-0.281-0.193-0.116-0.047-0.255-0.071-0.418-0.071-0.161 0-0.3 0.024-0.416 0.071-0.115 0.046-0.211 0.111-0.285 0.193v1.319c0.075 0.080 0.17 0.143 0.285 0.192 0.116 0.048 0.255 0.072 0.416 0.072 0.163 0 0.302-0.024 0.418-0.072 0.115-0.049 0.21-0.112 0.281-0.192v-1.319zM25.685 30.728c-0.065 0.073-0.145 0.132-0.241 0.178-0.098 0.046-0.204 0.081-0.321 0.102-0.116 0.021-0.226 0.031-0.33 0.031-0.107 0-0.219-0.010-0.336-0.031-0.116-0.021-0.222-0.056-0.319-0.102s-0.177-0.106-0.24-0.178c-0.062-0.072-0.093-0.158-0.093-0.256v-1.257c0-0.099 0.032-0.184 0.093-0.257s0.143-0.131 0.24-0.178c0.097-0.046 0.203-0.080 0.319-0.101 0.118-0.021 0.229-0.032 0.336-0.032 0.104 0 0.214 0.012 0.33 0.032 0.118 0.021 0.223 0.055 0.321 0.101 0.096 0.047 0.176 0.106 0.241 0.178 0.063 0.073 0.096 0.158 0.096 0.257v1.257c0 0.099-0.033 0.184-0.096 0.256z"></path>
<path d="M26.595 31.006v-2.224c0-0.040 0.015-0.072 0.039-0.097 0.027-0.026 0.060-0.038 0.103-0.038s0.077 0.014 0.104 0.038c0.029 0.025 0.042 0.057 0.042 0.097v2.224h-0.288zM26.9 28.129c-0.042 0.040-0.094 0.061-0.154 0.061s-0.112-0.021-0.155-0.061c-0.044-0.041-0.065-0.090-0.065-0.145 0-0.057 0.021-0.106 0.065-0.146 0.044-0.041 0.095-0.061 0.155-0.061s0.112 0.020 0.154 0.061c0.042 0.040 0.063 0.088 0.063 0.146 0 0.056-0.021 0.104-0.063 0.145z"></path>
<path d="M29.044 31.017c-0.125 0.016-0.243 0.024-0.355 0.024-0.107 0-0.219-0.011-0.335-0.032-0.118-0.021-0.223-0.055-0.321-0.102-0.097-0.046-0.177-0.106-0.238-0.178s-0.094-0.158-0.094-0.257v-1.257c0-0.098 0.032-0.184 0.094-0.256s0.142-0.131 0.238-0.178c0.098-0.046 0.204-0.080 0.321-0.101 0.116-0.021 0.228-0.033 0.335-0.033 0.112 0 0.229 0.014 0.355 0.024 0.125 0.016 0.24 0.043 0.341 0.082v0.276c-0.079-0.026-0.174-0.051-0.287-0.074s-0.251-0.035-0.409-0.035c-0.16 0-0.299 0.024-0.413 0.071-0.116 0.046-0.211 0.111-0.285 0.193v1.32c0.074 0.079 0.169 0.143 0.285 0.191 0.115 0.048 0.253 0.073 0.413 0.073 0.158 0 0.296-0.012 0.409-0.035s0.208-0.048 0.287-0.073v0.276c-0.101 0.040-0.216 0.067-0.341 0.083z"></path>
<path d="M31.427 28.991c-0.116-0.047-0.255-0.071-0.415-0.071-0.161 0-0.3 0.024-0.416 0.071s-0.211 0.112-0.285 0.194v0.522h1.4v-0.522c-0.072-0.082-0.166-0.147-0.284-0.194zM30.31 29.98v0.522c0.074 0.079 0.169 0.144 0.285 0.192s0.255 0.073 0.416 0.073c0.181 0 0.324-0.013 0.432-0.036 0.106-0.024 0.195-0.048 0.267-0.070 0.039-0.014 0.075-0.013 0.11 0.004s0.059 0.044 0.074 0.080c0.015 0.037 0.015 0.071 0 0.104-0.018 0.032-0.047 0.056-0.084 0.069-0.121 0.042-0.24 0.073-0.359 0.093-0.121 0.019-0.264 0.029-0.432 0.029-0.109 0-0.22-0.011-0.338-0.032-0.116-0.021-0.223-0.055-0.321-0.101-0.097-0.047-0.176-0.106-0.24-0.178s-0.095-0.158-0.095-0.257v-1.256c0-0.099 0.032-0.184 0.094-0.257 0.063-0.072 0.143-0.131 0.24-0.178 0.098-0.046 0.204-0.081 0.32-0.102s0.229-0.031 0.336-0.031c0.104 0 0.214 0.011 0.33 0.031 0.118 0.021 0.223 0.056 0.32 0.102 0.098 0.046 0.178 0.106 0.243 0.178s0.097 0.157 0.097 0.256v0.766h-1.695z"></path>
<path d="M12.71 20.085l-1.049 1.128h-1.455l0.002 0.809h1.054v1.075h-1.056v0.871h1.854v1.135h-3.062v-5.017h3.712z"></path>
<path d="M13.985 20.080v3.888h1.75v1.135h-2.963v-3.722l1.212-1.3z"></path>
<path d="M27.652 20.085v1.128h-0.727v3.889h-1.179v-3.889h-0.908l-1.042-1.128h3.856z"></path>
<path d="M20.179 20.085l-1.061 1.128h-1.467v0.809h1.072v1.075h-1.074v0.871h1.469l1.047 1.135h-3.726v-5.017h3.739z"></path>
<path d="M24.568 25.036h0.059c0.066 0 0.1-0.020 0.1-0.064 0-0.048-0.035-0.068-0.106-0.068h-0.053v0.133zM24.641 24.832c0.139 0 0.207 0.044 0.207 0.133 0 0.060-0.039 0.106-0.106 0.121l0.109 0.204h-0.131l-0.092-0.187h-0.059v0.187h-0.118v-0.458h0.19zM24.378 24.818c-0.071 0.067-0.11 0.156-0.11 0.247s0.036 0.177 0.104 0.241c0.069 0.067 0.163 0.106 0.26 0.106 0.095 0 0.186-0.037 0.258-0.103 0.069-0.061 0.107-0.148 0.107-0.237 0-0.1-0.035-0.183-0.103-0.248-0.072-0.068-0.161-0.103-0.263-0.103-0.098 0-0.184 0.033-0.253 0.097zM24.946 24.777c0.080 0.077 0.124 0.178 0.124 0.29 0 0.114-0.045 0.216-0.128 0.292-0.086 0.079-0.196 0.121-0.309 0.121-0.118 0-0.226-0.046-0.311-0.126-0.081-0.078-0.125-0.181-0.125-0.288 0-0.074 0.021-0.146 0.063-0.216 0.078-0.124 0.214-0.198 0.373-0.198 0.119 0 0.229 0.043 0.314 0.124z"></path>
<path d="M21.002 21.894l0.663-0.681h0.769l0.414 0.41h1.429l-1.418-1.536h-1.738l-1.318 1.41v2.191l1.318 1.416h1.738l1.418-1.541h-1.429l-0.414 0.408h-0.769l-0.663-0.711v-1.366z"></path>
<path d="M8.272 20.085v1.128h-2.078l-0.49 0.427v0.383h2.568v1.947l-1.316 1.135h-2.417v-1.135h1.998l0.539-0.442v-0.428h-2.539v-1.931l1.261-1.080 2.473-0.001z"></path>
<path d="M16.093 13.669c-1.4 0-2.561 0.544-4.598 1.657-3.652 1.994-6.197 3.384-6.606 3.608 0.557-0.298 5.044-2.569 11.205-2.569 6.148 0 10.629 2.262 11.201 2.568-0.418-0.23-2.961-1.617-6.603-3.607-2.038-1.113-3.198-1.657-4.599-1.657z"></path>
<path d="M12.49 10.454c-3.076 5.040-7.392 7.58-7.952 7.893 0.415-0.227 2.959-1.616 6.604-3.607 2.038-1.112 3.117-1.79 3.817-2.937s0.782-2.369 0.782-4.596c0-3.969 0-6.744 0-7.209-0.008 0.634-0.182 5.429-3.25 10.456z"></path>
<path d="M19.698 10.454c3.076 5.040 7.392 7.58 7.952 7.893-0.415-0.227-2.959-1.616-6.603-3.607-2.038-1.112-3.117-1.79-3.817-2.937s-0.782-2.369-0.782-4.596c0-3.969 0-6.744 0-7.209 0.008 0.634 0.182 5.429 3.25 10.456z"></path>
</symbol>

<symbol id="icon-twitter" viewBox="0 0 32 32">
<path fill="#fafafa" style="fill: var(--color3, #fafafa)" d="M23.529 9.882c0 4.158-3.371 7.529-7.529 7.529s-7.529-3.371-7.529-7.529c0-4.158 3.371-7.529 7.529-7.529s7.529 3.371 7.529 7.529z"></path>
<path fill="none" stroke="#fff" style="stroke: var(--color1, #fff)" stroke-linejoin="miter" stroke-linecap="butt" stroke-miterlimit="4" stroke-width="0.4706" d="M23.294 9.882c0 4.028-3.266 7.294-7.294 7.294s-7.294-3.266-7.294-7.294c0-4.028 3.266-7.294 7.294-7.294s7.294 3.266 7.294 7.294z"></path>
<path fill="#2d2d2d" style="fill: var(--color20, #2d2d2d); stroke: var(--color1, #fff)" stroke="#fff" stroke-linejoin="miter" stroke-linecap="butt" stroke-miterlimit="4" stroke-width="0.4706" d="M15.861 8.619c-0.457-0.056-0.902-0.192-1.313-0.401-0.497-0.252-0.936-0.606-1.287-1.038l-0.214-0.264-0.171 0.294c-0.221 0.378-0.289 0.827-0.19 1.253 0.029 0.127 0.073 0.248 0.129 0.363l-0.184-0.102v0.417c0 0.397 0.137 0.781 0.389 1.088 0.028 0.034 0.057 0.067 0.087 0.099l-0.066-0.013 0.122 0.378c0.11 0.341 0.324 0.639 0.611 0.853 0.119 0.088 0.248 0.161 0.384 0.215-0.37 0.185-0.787 0.288-1.228 0.288-0.113 0-0.222-0.005-0.325-0.018l-0.156 0.431c0.716 0.461 1.549 0.706 2.4 0.704l1.013-4.548zM15.861 8.619c-0.013-0.269 0.038-0.539 0.15-0.787 0.156-0.345 0.421-0.629 0.755-0.808s0.718-0.242 1.091-0.18c0.328 0.054 0.633 0.202 0.877 0.425 0.262-0.064 0.514-0.167 0.747-0.305l0.534-0.317-0.19 0.591c-0.034 0.106-0.078 0.208-0.132 0.305 0.004-0.002 0.008-0.004 0.012-0.005l0.741-0.329-0.45 0.674c-0.191 0.286-0.426 0.54-0.697 0.752 0 0.026 0 0.052 0 0.077 0 2.062-1.569 4.455-4.454 4.456l1.013-4.548zM8.706 9.882c0-4.028 3.266-7.294 7.294-7.294s7.294 3.266 7.294 7.294c0 4.028-3.266 7.294-7.294 7.294s-7.294-3.266-7.294-7.294z"></path>
</symbol>

<symbol id="icon-visa-logo" viewBox="0 0 43 32">
<path fill="#2566af" style="fill: var(--color21, #2566af)" d="M18.946 20.223h-2.93l1.831-8.441h2.93l-1.831 8.441zM13.551 11.783l-2.793 5.805-0.331-1.25 0 0-0.986-3.796c0 0-0.119-0.76-1.39-0.76h-4.618l-0.054 0.143c0 0 1.412 0.22 3.065 0.965l2.546 7.333h3.053l4.662-8.441h-3.153zM36.597 20.223h2.69l-2.346-8.441h-2.355c-1.088 0-1.353 0.629-1.353 0.629l-4.37 7.812h3.054l0.611-1.254h3.725l0.343 1.254zM33.372 17.238l1.54-3.159 0.866 3.159h-2.406zM29.093 13.812l0.418-1.813c0 0-1.29-0.368-2.635-0.368-1.454 0-4.907 0.477-4.907 2.794 0 2.181 4.053 2.208 4.053 3.353s-3.635 0.94-4.835 0.218l-0.436 1.895c0 0 1.308 0.477 3.307 0.477s5.016-0.776 5.016-2.89c0-2.195-4.089-2.399-4.089-3.353s2.854-0.832 4.108-0.314z"></path>
<path fill="#e6a540" style="fill: var(--color22, #e6a540)" d="M10.427 16.338l-0.986-3.796c0 0-0.119-0.76-1.39-0.76h-4.618l-0.054 0.143c0 0 2.22 0.345 4.348 1.638 2.036 1.235 2.699 2.775 2.699 2.775z"></path>
</symbol>

<symbol id="icon-star" viewBox="0 0 32 32">
<path d="M7.226 30.887c-0.772 0.396-1.648-0.298-1.492-1.184l1.66-9.46-7.046-6.712c-0.658-0.628-0.316-1.776 0.566-1.9l9.796-1.392 4.368-8.654c0.394-0.78 1.46-0.78 1.854 0l4.368 8.654 9.796 1.392c0.882 0.124 1.224 1.272 0.564 1.9l-7.044 6.712 1.66 9.46c0.156 0.886-0.72 1.58-1.492 1.184l-8.782-4.512-8.776 4.512z"></path>
</symbol>

</defs>
</svg>
